<svg id="Layer_1" data-name="Layer 1" xmlns="http://www.w3.org/2000/svg" viewBox="0 0 2420.05 1046.29"><defs><style>.cls-1,.cls-3{fill:#fff;}.cls-1,.cls-2{stroke:#fff;}.cls-1,.cls-2,.cls-4{stroke-miterlimit:10;}.cls-2,.cls-4{fill:none;}.cls-4{stroke:#000;}</style></defs><path class="cls-1" d="M1796.75,1709.88c-28-14.78-56-29.74-84.17-44.3-124.9-64.58-253-121.77-386.52-166.33-73.08-24.4-146.62-47.49-221.61-65.27-43.29-10.27-87.28-17.68-131.06-25.81-27.62-5.12-55.44-9.14-83.15-13.76-4.39-.73-7.32.08-10,4.23-3.48,5.49-4.42,11.35-5,17.49-2.9,28.18-22.09,50.63-49.65,57.82-4.52,1.18-7.58,3.11-9.53,7.65-3.59,8.36-11.87,11.36-20.24,8-5.51-2.21-7.59-1.57-10.76,3.46-1.15,1.82-2.62,3.65-3.06,5.67-1.3,5.91-4.87,7.42-10.54,7.21-12.14-.44-24.3-.32-36.45-.45-3,0-5.49.26-6.78,3.7s-6,4.07-7.44.63c-1.83-4.4-5-4.77-8.8-4.81l-93.4-1.17-166.79-2c-21.64-.26-43.28-.59-64.92-.81-10.08-.11-12.57-1.89-15.25-11.41-1.84-6.53-4.67-7.92-11-5.43-9.38,3.67-15.67,1.34-19.93-7.93-2.18-4.73-5.12-8.06-10.42-9-9.76-1.65-17.68-6.75-24.36-13.7-15.53-16.12-26.57-34.42-27.07-57.68-.1-4.85-2-6.12-6.78-5.36-56.17,8.87-112.41,17.33-168.48,26.74-49.53,8.32-98.22,20.5-146.32,34.85-65.69,19.6-131.8,38.07-196.64,60.19-53.65,18.3-106.38,39.69-158.34,62.39-71.92,31.4-142.73,65.31-214,98.14-3.29,1.52-6.59,3-10.47,4.76v-5.38c0-21.65.06-43.3,0-65a18.86,18.86,0,0,1,3.32-11.46c19.3-28.49,38.21-57.25,57.33-85.87q50-74.87,100.07-149.67c5-7.52,4.83-8.24-1.74-14.61q-42.81-41.58-85.55-83.24c-13.6-13.23-27.34-26.32-40.85-39.64-3.67-3.63-7.48-4.48-12.22-2.84-4.54,1.56-9.15,2.94-13.77,4.27-1.87.54-3.85.75-6.54,1.25v-69.76c0-6.51.73-7.47,7.55-9.44,17.38-5,34.75-10.11,52.17-15,82.22-23.1,164.91-44.37,248.36-62.47,58.62-12.72,117.62-23.69,176.44-35.51a39.79,39.79,0,0,0,6.17-2.33l-.27-1.63c-2.23,0-4.53-.34-6.69.06-35,6.48-70.1,12.36-104.89,19.76-68.58,14.58-137,29.89-205.43,45.18-20.42,4.56-40.66,9.93-60.93,15.17-3.73,1-5.65.08-7.85-3-4.16-5.78-9-11.08-13.4-16.65-3.46-4.34-3.07-5.62,2.22-7.15,35.27-10.2,57.22-33.5,67.42-68.39,1.55-5.3,2.1-5.48,6.6-2.41,1.19.81,2.5,1.43,4.32,2.46.54-2.34,1-4,1.32-5.77,3.05-18.08,19-33.73,36.39-35.5a26.72,26.72,0,0,1,9.41.42c4.33,1.17,7.73-.18,11.31-2.18,19.37-10.77,31.24-27.94,40.59-47.28,7.37-15.23,14.33-30.68,22.21-45.64,8.34-15.83,19.37-29.44,36.06-37.43,11-5.25,22.41-6,34.09-3.37,7.33,1.66,13,5.84,16,13,1.7,4.09,3.75,4.87,7.52,2.16,5.53-4,11.48-7.36,17-11.31,9.34-6.67,10.39-14.23,3.55-23.41-3.87-5.2-4.18-9.47-.12-14.53,7.45-9.27,17.43-13.28,29.13-11.67,4.67.65,5.43-.9,5.64-4.82.83-15.43,1.93-30.86,2.77-46.3.21-3.8,1.76-5.64,5.56-6.28,56.38-9.53,112.62-20,169.17-28.47,49-7.29,98.31-13.12,147.64-17.95,53.3-5.21,106.75-9.06,160.19-12.46,47.8-3,95.68-4.84,143.54-6.85,20.78-.87,41.59-.94,62.39-1.3,19.47-.33,38.95-.48,58.42-.92,3.94-.09,7.87-1.76,11.78-1.65,13.19.38,26.36,1.39,39.55,1.85,14.79.52,29.61.48,44.4,1.08,43,1.75,86.12,3.23,129.13,5.68q66.25,3.79,132.41,9.3c35.81,2.94,71.57,6.63,107.29,10.6,32.57,3.61,65.12,7.6,97.56,12.22,37.71,5.37,75.31,11.44,112.91,17.52,30.2,4.89,60.31,10.3,90.48,15.34,4.77.79,7.43,2.92,8,7.87,1.94,15.85,4.1,31.67,6.1,47.51.87,6.83,1.35,7.26,8.15,6.11,11.51-2,24.78,4.85,28.62,15.25,1,2.65.41,6-.07,9-.39,2.4-2,4.58-2.58,7-3,11.72-1.56,15.66,8.41,22.81,4.31,3.09,9,5.71,13.39,8.66,2.41,1.6,4.21,1.53,5.76-1.13,10.27-17.62,33.61-21.28,52-11.25,19.69,10.75,31.35,28.09,40.2,48,7.88,17.7,15.65,35.51,24.75,52.58,7.71,14.46,20.2,25.05,33.74,34.11,2.09,1.4,5.38,1.77,8,1.48,25-2.73,42.07,10.52,45.67,35.57.25,1.73.84,3.41,1.44,5.8l9.31-4.65c.8,2.26,1.58,4.21,2.2,6.21,7.71,24.91,20.37,46.31,43.87,59.39,7.18,4,15.16,6.66,23,9.36,4,1.37,4.65,2.72,2.54,6.31-2.85,4.85-5.33,9.93-7.82,15-3,6-4.88,7-11.48,5.24-29.43-7.6-58.78-15.55-88.31-22.74q-92-22.39-184.17-44c-28-6.52-56.28-11.76-84.42-17.65-2.6-.54-5.18-1.35-5.86,2.25-.6,3.17,1.59,4.39,4.3,5,16.42,3.52,32.89,6.8,49.24,10.61,53.39,12.44,106.88,24.52,160.08,37.77,89.76,22.35,178.47,48.44,266.53,76.77a11.44,11.44,0,0,1,1.33.62v76c-6.57-2.32-13.13-4.68-19.72-7a8.08,8.08,0,0,0-9.12,2.14c-2.67,2.75-5.49,5.33-8.32,7.91q-63.35,57.59-126.73,115.1c-3.38,3.08-4.67,5.52-1.8,10.08q78.33,124.43,156.45,249c2.3,3.64,6.12,6.32,9.24,9.45ZM1490.38,1127c-1.09,1.48-2.93,3-3.42,4.81a26.19,26.19,0,0,0,3.47,21.44q64,101.61,127.93,203.28c3.34,5.3,3.92,5.35,8.47,1.23q66.23-59.93,132.46-119.84a47,47,0,0,0,14.31-22.36c1.63-5.78.69-7.26-5-9.06-84.86-26.71-170.21-51.72-256.39-73.84C1505.29,1130.85,1498.39,1129.05,1490.38,1127Zm-1804.15-16c-2.22.54-3.19.75-4.15,1q-112.45,28.82-224.87,57.71c-15.42,4-30.62,8.85-45.81,13.68-2.43.77-6.31,3.93-6,5.2,1.87,8.33,3.37,17,10.1,23.36,12.29,11.72,24.37,23.64,36.53,35.49q44.89,43.74,89.73,87.52c8.36,8.2,7.82,8.34,14.48-1.68q64.31-96.77,128.59-193.54c5.07-7.61,7.28-15.46,4.72-24.29C-311,1113.58-312.82,1112.17-313.77,1110.92Zm1806.31,404.69c-.71,3.54,2.64,5,6.23,6.4,74.64,29.34,147,63.63,218.32,100.22,18.3,9.39,36.32,19.33,54.55,28.86,1.87,1,4.64,1.81,6.39,1.14,3.46-1.33,5.79-11,3.77-14.35q-9.4-15.57-19-31-69-110.51-138-221c-3.8-6.08-4.88-6.23-10.15-1.53q-.75.66-1.47,1.35-24.42,22.83-48.84,45.68c-18.94,17.74-38,35.4-56.77,53.29C1499.06,1492.69,1493.52,1502.38,1492.54,1515.61Zm-2109.65,98.46c.11,10.23,4.47,12.94,11.94,9.16,10.81-5.46,21.51-11.16,32.45-16.35,77.34-36.65,155.11-72.34,235.1-102.94,10.7-4.09,10.51-4.17,8.25-15.11-2-9.76-5.92-18.21-14.13-24.41a95.23,95.23,0,0,1-9.48-8.84q-44.07-43.89-88.1-87.82c-7.93-7.9-8.16-7.81-14.38,1.6q-31.49,47.61-63.11,95.15-47.32,70.92-94.78,141.77C-615.23,1609.09-616.33,1612.43-617.11,1614.07Zm2083.42-301.42h1.41c0,20.29,0,40.58,0,60.87q.11,45.71.32,91.42c0,8.77.59,9.55,8.76,12.42a12.88,12.88,0,0,1,1.34.67c10.56,5.29,15.35,4.51,24-3.65q50.89-47.88,101.86-95.71c10.9-10.21,10.76-8.5,2.91-21q-60-95.39-119.76-190.85c-3.91-6.24-8.93-10.6-16.39-11.85-5.73-1-6.44-.49-6.41,5.4.08,18.48.1,37,.35,55.44C1465.18,1248.09,1465.78,1280.37,1466.31,1312.65ZM-297.34,1297h0c.25-3.64.54-7.29.73-10.94q2.85-53.79,5.67-107.57c.58-11.13,1.23-22.25,1.62-33.38.21-6-.58-6.25-6.26-5.62-6,.66-9.78,3.55-13.09,8.56q-64.29,97.34-128.92,194.47c-4.93,7.43-4.93,7.62,1.26,13.81,32.74,32.72,65.66,65.26,98.06,98.31,7.48,7.63,13.79,12.18,24.76,6.31,7.31-3.9,8.14-3,8.57-11.53Q-301.1,1373.23-297.34,1297ZM1427,1478.53c-1.33-3.06-2.17-6.47-4.06-9.12q-54.92-76.65-110-153.15a14.7,14.7,0,0,0-10.83-6.23c-14.68-1.83-29.36-3.72-44-5.83-9-1.29-16.89.1-22.64,7.93a14.57,14.57,0,0,1-2.17,2q-37.3,33.52-74.55,67.1a16.14,16.14,0,0,0-4.46,6.93c-1.22,4.11-1.48,8.5-2.27,12.74-.84,4.48,1,6.49,5.38,7.71C1196,1419.22,1234.83,1429,1273,1441c46.66,14.7,92.7,31.34,139,47.16C1424.37,1492.39,1425.09,1491.94,1427,1478.53ZM-78.47,1295.6c-1.15.12-2.31.24-3.47.38-16.84,2-33.65,4.34-50.53,5.89a22.91,22.91,0,0,0-17.5,9.81c-11.23,15.07-22.7,30-34.13,44.88q-36.59,47.7-73.25,95.34c-4.52,5.86-6.29,11.82-3.33,19,1.22,2.95,2.84,3.88,5.7,3,1.42-.43,2.79-1,4.19-1.54,70-25.11,141.24-46.25,213.4-64.29,15-3.75,30-7.29,45-10.93,3.71-.9,6.84-2.55,6-7.06-1.77-9-4.14-17.83-11.77-24.08-3.21-2.63-6.21-5.52-9.22-8.39q-29.22-27.93-58.38-55.92C-69.38,1298.24-73.18,1295.44-78.47,1295.6Zm1403.53,18.07c1.52,3.14,2.15,5.14,3.32,6.76q48.48,67.14,97.13,134.16a15.74,15.74,0,0,0,5.85,5.2c7.57,3.37,15.33,6.33,23.09,9.27,4,1.51,5.42.34,5.37-4.12,0-4.15-.32-8.3-.42-12.46-.79-33.91-1.63-67.82-2.33-101.74-.85-41.49-1.51-83-2.37-124.46-.48-23.11-1.25-46.21-1.76-69.32-.09-4.23-2.07-6.45-6-7.37-5.66-1.35-11.3-2.77-17-4-6.15-1.38-7.67-.4-9,5.8-2.46,11.53-4.86,23.07-7.28,34.61-1.15,5.49-2,6-7.48,4.58-7.56-1.92-15.1-4-22.76-5.4a10.26,10.26,0,0,0-7.27,1.7c-5.4,4.14-10.42,8.8-15.4,13.45-1.46,1.37-2.3,3.4-3.78,5.68,2.48.57,4,1.07,5.65,1.27,6.27.82,12.58,1.37,18.82,2.33,12.5,1.94,13-.66,11.47,14-3.15,30.1-5.87,60.24-8.84,90.36-.66,6.6-1.29,7-7.82,6.09-11.2-1.52-22.4-3.13-33.61-4.57C1337.35,1314.74,1331.93,1314.35,1325.06,1313.67Zm-1485-7.23c-3.59,0-5.68-.21-7.72,0-15.53,1.8-31.05,3.71-46.58,5.54-7,.83-7.63.17-8.18-6.87q-3.72-47.75-7.59-95.48c-.45-5.57.47-6.78,6-7.39,12.23-1.37,24.46-2.76,36.68-4.27a50.64,50.64,0,0,0,6.92-1.79l.73-1.6c-7.7-7.2-15.31-14.51-23.23-21.47-1.19-1.05-4-1.14-5.7-.55-5,1.76-5.91-.94-7-4.89s-2.14-8.41-4.76-11.17c-8.12-8.56-16.83-16.59-25.67-24.41a11.31,11.31,0,0,0-8.09-2.16c-5.57.7-11,2.52-16.52,3.7-4.15.89-6.28,3.12-6.43,7.52-.21,6-.86,11.94-1.17,17.91-1.92,37.36-3.72,74.73-5.7,112.09-1.91,36-4,72-6,108.06q-1.82,33.63-3.45,67.26c-.28,5.57.81,6.36,6,4.56s10.54-4.08,15.94-5.7a26.72,26.72,0,0,0,14.06-9.72q46.76-61.34,93.53-122.63A74.76,74.76,0,0,0-159.94,1306.44ZM940.66,1276c-13.52.35-11.9-2.12-21.09,9-8.92,10.75-18,21.41-27.28,31.81-8.43,9.41-12.53,20.11-12.09,32.75.15,4.39,1.92,6.06,6.12,6.71,30.72,4.71,61.5,9.13,92.09,14.57,34,6,67.85,13.06,101.76,19.67,5.22,1,7.77-.12,8.53-4.81,1.16-7.11,1.47-14.11-3.38-20.45-4.34-5.67-8.11-11.77-12.1-17.7-11.7-17.36-23.44-34.69-35-52.13-5.11-7.69-11.54-12.32-21.29-12.47-9.12-.14-18.22-1.4-27.33-2.24C972.51,1279,955.46,1277.38,940.66,1276Zm-707-4c-31.79,2.39-62.12,4.76-92.46,6.85-5.2.36-8.5,2.57-11.42,6.67q-24.55,34.53-49.43,68.83A25.69,25.69,0,0,0,75.43,1374c1,6.66,2.78,7.91,9.25,6.81,35.21-6,70.4-12.08,105.66-17.71,29.21-4.66,58.52-8.64,87.75-13.16,2-.3,4.9-2.46,5.13-4.08,1.39-9.79,0-19.29-6.19-27.37-10.44-13.57-21.24-26.87-31.65-40.46C241.91,1273.51,238.06,1270.86,233.67,1272Zm478.39-10.26,0-.24c-16.78-.76-33.56-1.65-50.35-2.14-2.51-.08-6,.93-7.47,2.72q-18.22,21.51-35.7,43.64c-1.09,1.37-1.4,5-.42,6.14,9,10.7,17.86,21.74,33.39,23.11,6.62.59,13.2,1.68,19.83,2.16q53.48,3.93,107,7.65c11.11.79,22.21,1.74,33.33,2.26,1.93.09,5.38-1.26,5.69-2.53,1.75-7.27,3.09-14.94-1.78-21.54-12.94-17.53-26.19-34.83-39.23-52.27a13.22,13.22,0,0,0-10.51-5.68C747.91,1264,730,1262.82,712.06,1261.71ZM345.5,1333.43c.06,9.64,1,10.44,9.3,9.53,2.31-.26,4.62-.59,6.95-.71q75.69-4.14,151.38-8.22a24.89,24.89,0,0,0,17.92-8.53c3.56-4,7.35-7.7,11.24-11.33,5.29-4.93,5.46-5.45,1.14-11-9.4-12.07-19.21-23.85-28.1-36.28-5-6.93-10.62-9.29-19-8.77q-47.78,3-95.62,4.93c-6.41.28-11,2.39-14.88,7.41-10.34,13.44-20.64,26.94-31.51,39.94C348.3,1317.66,342.05,1324.31,345.5,1333.43Zm882.13-31.33c-4.63-.83-7.66-1.58-10.72-1.88-9.76-1-19.54-1.77-29.32-2.6q-27.83-2.38-55.66-4.75c-4.3-.37-6.17,1.6-6.06,5.77.07,2.83.18,5.66.14,8.48-.25,17.6-.58,35.19-.8,52.79-.08,6.57,1.45,8.17,7.74,9.32a66.19,66.19,0,0,1,10.15,2.47c4.47,1.57,8.05.56,11.45-2.49q33.72-30.39,67.5-60.73C1223.71,1307,1225,1305.1,1227.63,1302.1Zm-1283.49-7.26c2.89,3.24,4.7,5.56,6.81,7.58,16.7,16,33.38,31.93,50.21,47.75,14.32,13.46,10.11,13.25,30.85,9.2,4.3-.84,5.89-2.59,6-6.82.37-11,1.22-21.9,1.55-32.86.27-8.79.07-17.59,0-26.39,0-6.84-.69-7.41-7.4-6.85q-40.21,3.38-80.42,6.75A74.5,74.5,0,0,0-55.86,1294.84ZM-188,1169.11c2.3,2.84,3.59,4.78,5.21,6.37,4.75,4.66,9.91,8.93,14.38,13.83,4,4.41,8.56,5.59,14.3,4.89,25.9-3.15,51.8-6.43,77.77-8.93,9.56-.92,15.78-5.38,21.29-12.68,5.31-7,5.29-14.42,3.89-22.4-1-5.85-1.61-6.49-7.41-5.43q-56.86,10.32-113.73,20.73C-177.23,1166.4-182.09,1167.74-188,1169.11Zm1550.27,11.52c-2.94-.9-5.23-1.83-7.62-2.3-21.32-4.27-42.62-8.65-64-12.62-23-4.27-46.11-8.16-69.18-12.17-4.06-.7-6.52,1.17-5.85,5,.75,4.29,1.81,8.79,3.94,12.5a70.9,70.9,0,0,0,10.77,14.28c2.71,2.76,6.67,5.39,10.36,5.9,30.78,4.25,61.62,8.06,92.47,11.75a12.49,12.49,0,0,0,8.34-2c6.19-4.74,11.91-10.1,17.67-15.38C1360.42,1184.45,1361.06,1182.65,1362.28,1180.63Zm-68.84-140.09c-1.76-4.89-3.93-6.67-8-7.3-29.74-4.61-59.4-9.71-89.14-14.33-32.36-5-64.74-10-97.2-14.46-30.81-4.21-61.69-7.94-92.6-11.4-28.77-3.22-57.58-6-86.41-8.58q-46.48-4.15-93-7.51c-24.2-1.77-48.44-3.11-72.67-4.45-2.62-.14-5.3,1-8,1.48l0,2a44.54,44.54,0,0,0,6.69,2.24c2.61.45,5.32.23,8,.43,47.61,3.54,95.23,6.81,142.8,10.75,36.31,3,72.61,6.21,108.78,10.47q61.19,7.2,122.11,16.55c50.45,7.69,100.74,16.39,151.12,24.55C1288.11,1041.32,1290.54,1040.72,1293.44,1040.54ZM1045,1286.83c1.6,2.91,2.59,5.1,3.92,7.08q18.75,27.94,37.61,55.82c7.31,10.83,18.59,16.2,29.32,13.89a23,23,0,0,0,.61-3.82c-.17-21.14-.46-42.27-.57-63.4,0-3.66-2.08-4.45-5-4.72-19.71-1.87-39.42-3.78-59.13-5.58C1049.91,1285.93,1048,1286.49,1045,1286.83ZM427.86,973.72c-.07-.55-.15-1.11-.22-1.66a35.79,35.79,0,0,0-6.06-1.11c-4-.09-8,.15-12,.31-30.25,1.21-60.54,1.9-90.75,3.78-41.83,2.61-83.66,5.65-125.4,9.39q-58.65,5.27-117.12,12.44c-38.31,4.65-76.51,10.2-114.72,15.59-22.39,3.17-44.73,6.73-67.05,10.36-1.79.29-3.25,2.52-4.87,3.85,1.74.5,3.57,1.64,5.21,1.4,40.5-5.76,80.92-12.09,121.47-17.43s80.9-10,121.43-14.33,81.08-8.67,121.72-11.54c53.93-3.81,108-6.17,161.92-9.25C423.62,975.4,425.73,974.34,427.86,973.72Zm-309.2,307.65c-3.37-.41-5.7-1.09-8-.91-17.75,1.41-35.48,3.09-53.23,4.45-4.44.35-5.85,2.23-6.12,6.58-.63,10.2,1,20.33-1.49,30.71-2,8.35-.58,17.56-.21,26.38.08,1.84,2.44,5.25,3.41,5.13,7.75-1,16.09-.49,21.5-8.21,13.37-19.06,27-37.93,40.47-56.94C116.43,1286.59,117.25,1284.21,118.66,1281.37Zm668.72-14.52c1.09,2.38,1.44,3.66,2.18,4.65,10.34,13.86,20.62,27.77,31.23,41.43,1.55,2,4.54,3.4,7.11,4,4,.94,8.24,1,12.37,1.39,3.94.4,5.94-1.17,5.89-5.32-.12-10.65,0-21.31-.24-32-.15-6.64-3.5-10-10.1-10.74-3.14-.35-6.31-.47-9.46-.7Zm123.38,9.05a18.51,18.51,0,0,0-3-.85q-23.88-1.53-47.75-3c-2.85-.17-4.31,1.34-4.36,4.2-.19,12.62-.46,25.23-.49,37.84a7,7,0,0,0,1.91,4.82c4.55,4,16.09,2.93,20.09-1.73q15.58-18.17,31-36.49C909.2,1279.43,909.77,1277.74,910.76,1275.9Zm-535.61-9.76c-2.41-.45-3.7-1-4.95-.89-15.42,1-30.84,1.91-46.23,3.25-1.64.14-4.3,2.71-4.39,4.28-.65,11.42-.9,22.88-.9,34.33,0,1.68,1.79,4.66,3.06,4.84,8.17,1.16,18.86,1.3,25.16-7.57,7.59-10.7,16-20.8,24-31.23A80,80,0,0,0,375.15,1266.14Zm149.37-7.59c1.07,2.16,1.61,3.94,2.67,5.32q13.48,17.58,27.14,35c4.32,5.5,10.1,7.77,17.09,7.32,4.31-.29,6.65-2.08,7-6.63a68.92,68.92,0,0,0-7-37.12c-2.23-4.53-5.25-6.46-10.12-6.27-10.57.41-21.14.66-31.71,1.08C528.2,1257.32,526.78,1258,524.52,1258.55Zm-268.7,14c1.39,2.22,2.27,4,3.45,5.45,7.4,9.39,15.38,18.36,22.15,28.18,5.92,8.6,13.15,10.88,22.82,8.56,3-.72,4.28-1.86,4.32-4.9q.22-17.41.67-34.83c.11-4.23-1.56-6.06-5.91-5.82-14.24.77-28.5,1.34-42.74,2.07C259.22,1271.31,257.88,1272,255.82,1272.53ZM419.5,1376.6c0,.72-.05,1.43-.07,2.15,2.2.18,4.39.5,6.59.52,16.81.16,33.62.24,50.43.38,38.28.31,76.55.68,114.83.9,2,0,4-1.17,6-1.79-.1-.85-.21-1.69-.32-2.53A1667.81,1667.81,0,0,0,419.5,1376.6ZM602.43,1303l1.51.59a25.93,25.93,0,0,0,3.64-3.09q15.34-18.65,30.53-37.42c.85-1.06,1.9-3.23,1.45-3.81a5.93,5.93,0,0,0-4.13-1.93c-8.3-.23-16.6-.15-24.9-.29-3.87-.06-5.21,2-5.46,5.51-.81,11.08-1.79,22.15-2.62,33.23C602.27,1298.15,602.43,1300.57,602.43,1303Zm152.8,76.5a53.69,53.69,0,0,0-6.47-1.3c-46.63-3.54-93.33-3.86-140-2.8-2.46.05-4.9,1.28-8.38,2.25C607.25,1381.39,748.1,1383.46,755.23,1379.47ZM-222.2,1138.58c.38-2.68.86-4,.68-5.13-1.95-12.09-3.94-24.17-6.06-36.23-.45-2.57-1.93-3.94-5-3.07-4.28,1.23-8.7,2-13,3.19-1.07.29-2.8,1.59-2.7,2.15,1,5.76.74,12.67,3.94,16.92C-238.34,1124.32-230.3,1130.68-222.2,1138.58Zm809.54,142.3h-.26c0,6.64,0,13.28,0,19.92,0,3.77,1.93,5.29,5.51,5.55s5.68-.95,6-4.8q1.74-19.83,3.64-39.63c.47-5.05-2.65-5.6-6.58-5.77s-7.35,0-7.45,5.35C588.09,1268,587.64,1274.42,587.34,1280.88ZM716.17,975.63l.39-2.7c-3.72-.84-7.42-2.22-11.17-2.41-10-.5-19.95-.49-29.93-.67q-39.16-.72-78.33-1.37c-1.69,0-3.38.79-5.07,1.22l.17,1.4a21.48,21.48,0,0,0,4.13.79c8.48,0,17-.31,25.45-.16,11.54.21,23.3-2,34.47,2.91a12.09,12.09,0,0,0,4.4.6c13.29.36,26.59.78,39.89,1C705.76,976.29,711,975.84,716.17,975.63Zm-203-4c-7.53-4.43-47.69-2.76-52.26,1.67,1.71.43,3,1,4.36,1,13.15,0,26.32,0,39.47-.21C507.11,974.12,509.49,972.78,513.13,971.66ZM373.38,1408.8c7.28-4.47,7.16-4.44,5.06-12.19-.48-1.77.55-3.92.15-5.74-.36-1.67-1.71-3.12-2.63-4.67-1.22.88-3.26,1.57-3.51,2.68C370.91,1395.54,370.7,1402.24,373.38,1408.8Zm6.29,55.71c-3.57-.93-7.57-4.54-9,.81-1.26,4.59-.57,9.78-.22,14.66.06.93,2.57,1.68,3.94,2.51.93-1.56,3-3.92,2.59-4.56C373.29,1472.62,375.62,1468.58,379.67,1464.51Zm392.74,4.32c7.63,4.5,1.07,9.62.66,14.44,4.94,1.62,5.92,1.14,6.2-3.11a64.1,64.1,0,0,0-.1-8C778.88,1467.08,778,1466.57,772.41,1468.83ZM549,1490.23l.75-2.52c-1.4-.74-2.72-1.89-4.2-2.12a49.49,49.49,0,0,0-8.86-.49c-1.05,0-2.07,1-3.1,1.56.84,1,1.6,2.73,2.54,2.84C540.43,1490,544.74,1490,549,1490.23Zm-154.65-2.69c4.31,4.78,9.91,4.89,14.17.27C404.59,1483.44,399,1483.33,394.39,1487.54Zm54.49-516.32-11.78-3C439.46,974.75,443.54,975.86,448.88,971.22Zm472.56,274.29,0,1.6,4.8,3.81,1.73-.53c-.19-2-.37-4-.56-6ZM612.75,1486.14l-3.52,2.43a43.91,43.91,0,0,0,5.7,2.36c.62.17,1.58-.91,2.39-1.41Zm119,4.26c4.48,1.57,6-1.63,8.06-3.68C735.79,1483.84,733.82,1486.12,731.76,1490.4Zm47.8-87.17,1.11-.82c-.71-1.1-1.18-2.8-2.18-3.2-3.78-1.52-4.6-1.15-5.92,1.71a18,18,0,0,0,2.24,1C776.38,1402.43,778,1402.81,779.56,1403.23ZM239,1234.66c-4.38,3.67-4.38,3.67,0,7.29l3.26-3.3Z" transform="translate(622.8 -664.42)"/><path d="M748.88,1448.07c4,5.7,2.82,10.61.84,15.4-1.77,4.29-5.74,3.8-9.41,3.76-6.16-.07-12.32.1-18.46-.28-2.39-.15-4.71-1.54-7.06-2.37l4.18-4.32c-1-3.84-2.62-7.52-2.8-11.27-.3-6.45.61-13,.39-19.41-.13-4-1.28-8-2.21-12-.62-2.65-1.25-5.38,2.57-5.44,9.47-.16,18.94,0,28.42.1.55,0,1.1.65,1.89,1.14l-2.12,3.73c1.63,3.55,3,6.35,4.14,9.26.24.61-.68,1.66-1.07,2.5-.94-.43-2.4-.62-2.73-1.33-2.85-6.19-8.08-3.85-12.56-3.39-1,.1-2.75,3-2.39,3.89.79,2,2.42,4.29,4.25,4.91,1.66.57,4-.92,7.54-1.91,0,4.49.09,8.42,0,12.35-.08,3-1.23,3.87-4.13,2.12-1.49-.9-4.9-1.6-5.11-1.18a23.56,23.56,0,0,0-2.62,8.21c-.09,1,2.07,2.58,3.5,3.13a63.74,63.74,0,0,0,7.81,2Z" transform="translate(622.8 -664.42)"/><path d="M710.68,1450.88c1.87,12.24-7,19.83-18.93,16.68-11.14-3-19.51-16.45-19-29.1.49-12,7.42-19.54,16-26.17,3.43-2.64,16.41-1.71,19.58,1.09a4.34,4.34,0,0,1,1.31,2.59c.5,4.89.84,9.79,1.22,14.57-6.86,1.27-8.82-3-6.8-13.17l-9-1.19c-1.69,3.1-2.84,6-4.66,8.42a21.38,21.38,0,0,0-.74,24.7c4.1,5.94,9.46,7.14,15.93,3.67C707.22,1452.13,709,1451.59,710.68,1450.88Z" transform="translate(622.8 -664.42)"/><path d="M670.21,1459.5c0,3,.34,6.27-3.57,7.27s-7.26-.28-9.28-4c-4.3-7.86-8.51-15.77-12.78-23.64-.73-1.35-1.61-2.62-3.16-5.12v30.16c-8,1.09-9.36,0-9.69-8.52-.39-10.13-.53-20.27-1.07-30.39-.17-3.07-1.22-6.11-2.06-9.11-.91-3.24-.31-5,3.51-5.28,12-.84,13.72.08,18.79,11,2.34,5,4.55,10.15,7.31,16.33,2.82-7.65,2.71-14-.17-20.23-2.5-5.41-1.75-6.9,4.24-6.9,3.46,0,6.91.87,11.25,1.47-5.78,9.53-3.47,18.64-3.6,27.49C669.83,1446.53,670.11,1453,670.21,1459.5Z" transform="translate(622.8 -664.42)"/><path d="M619.77,1458.45c.45,2,2,3.66,3.05,5.54-2.29,2.16-14.1,3.52-16,1.23-1-1.19-1.15-3.72-.65-5.31,1.83-5.8-1.32-10.07-7.18-9.31-2.86.37-4.62,1.7-4.6,4.8s0,6.3,0,10l-13.86-2.7c2.42-8,5.09-16,7.17-24.1a198.67,198.67,0,0,0,4.64-22.76c.61-4.55,2.46-6,6.72-5.74,6.57.39,9.15,2.27,11,8.56,2.89,10,5.9,20,8.57,30.13C619.45,1451.87,619,1455.3,619.77,1458.45Z" transform="translate(622.8 -664.42)"/><path d="M573.46,1458.51c.92,1.8.63,4.21.88,6.34-2.09-.45-4.2-.82-6.25-1.41-.74-.22-1.33-1-2.23-1.67l-5,3.86c-3.28-5.76-6.4-11.24-9.53-16.72l-1.21.24c.68,4.84,1.36,9.69,2.12,15.14H537.82c-.23-3.36-.48-6.07-.58-8.79-.2-5.78-.4-11.57-.46-17.35-.08-8,2.3-16.14-1.55-24-1.37-2.8,1-4.06,3.37-4.06,7.47,0,15-.11,22.42.62,6.88.67,10.07,5.89,11.67,12s.46,11.49-4.38,15.89c-5.38,4.9-5.31,4.9-1,10.79A68,68,0,0,1,573.46,1458.51Z" transform="translate(622.8 -664.42)"/><path d="M529.93,1412.22c.92,5.62,2,11.38-.56,17-4.75-1.64-8.41-7.69-8.64-14l-7.86.65c6.9,3.86,5.39,9.91,4.9,15.82-.68,8.09-1.1,16.2-1.33,24.31,0,1.27,1.59,2.55,2.37,3.87s1.29,2.4,1.92,3.61c-1.37.61-2.72,1.66-4.12,1.73-4,.19-8,0-12-.06-3.48,0-4-1.73-3.48-4.89,1.1-6.27,2-12.59,2.55-18.93a103.52,103.52,0,0,0,.28-14.94c-.1-1.81-1.69-3.54-2.61-5.31-1.29,1.1-2.68,2.11-3.85,3.33-1.56,1.62-2.95,3.4-4.64,5.39-4.32-6.79-1.51-12.77.53-18.6.38-1.08,3-1.93,4.65-1.92q13.95.15,27.9.86C527.38,1410.12,529.77,1411.27,529.93,1412.22Z" transform="translate(622.8 -664.42)"/><path d="M482.26,1409c4.47.2,5.1,1.5,2.91,5.48a7,7,0,0,0-1,3.17c0,13.44.12,26.89.14,40.33,0,3,.43,6.4-3.66,7.12s-7.42-.09-9.49-4.39c-4.11-8.5-8.54-16.85-12.87-25.25-.56-1.09-1.32-2.07-2-3.11-.36,9-2.66,17.84.93,26.46,1.87,4.52.94,5.65-4.07,5.27a37.22,37.22,0,0,1-3.92-.64l-3.52-.61c0-11.44.14-22.87-.07-34.29a70,70,0,0,0-1.53-14.09c-.69-3.06-.23-4.48,2.81-4.75,7.1-.65,14.31-.81,17.7,8.72,2.07,5.85,5.22,11.33,8.5,18.27,1.89-8,2.26-14.28-.66-20.71-2.38-5.24-1.46-6.31,4.28-6.78A43.65,43.65,0,0,1,482.26,1409Z" transform="translate(622.8 -664.42)"/><path d="M438.25,1446a64,64,0,0,1-.07,8,24,24,0,0,1-2,7.44c-.71,1.47-2.53,3.32-3.92,3.37-9.13.35-18.28.41-27.42.26-4.85-.09-3.54-3.93-3.27-6.7.76-7.58,2.15-15.13,2.49-22.73.32-7.34,1.75-14.91-2-22-.35-.66,1.78-3.79,2.83-3.84,9.09-.37,18.21-.5,27.3-.16,1.48,0,3.75,2.53,4.11,4.22.81,3.73.62,7.67.79,10.62l-18.67-3.06c.36,3,.18,6.44.9,6.64,3,.82,6.23.67,10.64,1v14.55l-3.84-1.17c-6.31-1.9-9.38.73-8.21,7.1a4.39,4.39,0,0,0,1.25,2.52c3.41,2.78,11.81,1,14.13-2.75a25.83,25.83,0,0,1,3.18-3.55Z" transform="translate(622.8 -664.42)"/><path class="cls-2" d="M456.33,1432.32c.66,1,1.42,2,2,3.11,4.33,8.4,8.76,16.75,12.87,25.25,2.07,4.3,5.45,5.1,9.49,4.39s3.67-4.17,3.66-7.12c0-13.44-.14-26.89-.14-40.33a7,7,0,0,1,1-3.17c2.19-4,1.56-5.28-2.91-5.48a43.65,43.65,0,0,0-5.48.2c-5.74.47-6.66,1.54-4.28,6.78,2.92,6.43,2.55,12.69.66,20.71-3.28-6.94-6.43-12.42-8.5-18.27-3.39-9.53-10.6-9.37-17.7-8.72-3,.27-3.5,1.69-2.81,4.75a70,70,0,0,1,1.53,14.09c.21,11.42.07,22.85.07,34.29l3.52.61a37.22,37.22,0,0,0,3.92.64c5,.38,5.94-.75,4.07-5.27C453.67,1450.16,456,1441.31,456.33,1432.32Z" transform="translate(622.8 -664.42)"/><path class="cls-2" d="M673.53,1412.57c-4.34-.6-7.79-1.47-11.25-1.47-6,0-6.74,1.49-4.24,6.9,2.88,6.27,3,12.58.17,20.23-2.76-6.18-5-11.28-7.31-16.33-5.07-10.93-6.83-11.85-18.79-11-3.82.26-4.42,2-3.51,5.28.84,3,1.89,6,2.06,9.11.54,10.12.68,20.26,1.07,30.39.33,8.56,1.67,9.61,9.69,8.52V1434c1.55,2.5,2.43,3.77,3.16,5.12,4.27,7.87,8.48,15.78,12.78,23.64,2,3.7,5.25,5,9.28,4s3.61-4.25,3.57-7.27c-.1-6.48-.38-13-.28-19.44C670.06,1431.21,667.75,1422.1,673.53,1412.57Z" transform="translate(622.8 -664.42)"/><path class="cls-2" d="M565.86,1461.77c.9.7,1.49,1.45,2.23,1.67,2,.59,4.16,1,6.25,1.41-.25-2.13,0-4.54-.88-6.34a68,68,0,0,0-6.11-9.08c-4.35-5.89-4.42-5.89,1-10.79,4.84-4.4,6-9.83,4.38-15.89s-4.79-11.38-11.67-12c-7.43-.73-14.95-.61-22.42-.62-2.32,0-4.74,1.26-3.37,4.06,3.85,7.87,1.47,16,1.55,24,.06,5.78.26,11.57.46,17.35.1,2.72.35,5.43.58,8.79h14.43c-.76-5.45-1.44-10.3-2.12-15.14l1.21-.24c3.13,5.48,6.25,11,9.53,16.72Z" transform="translate(622.8 -664.42)"/><path class="cls-2" d="M437.07,1424.36c-.17-2.95,0-6.89-.79-10.62-.36-1.69-2.63-4.17-4.11-4.22-9.09-.34-18.21-.21-27.3.16-1.05,0-3.18,3.18-2.83,3.84,3.76,7.13,2.33,14.7,2,22-.34,7.6-1.73,15.15-2.49,22.73-.27,2.77-1.58,6.61,3.27,6.7,9.14.15,18.29.09,27.42-.26,1.39,0,3.21-1.9,3.92-3.37a24,24,0,0,0,2-7.44,64,64,0,0,0,.07-8l-1.8-.37a25.83,25.83,0,0,0-3.18,3.55c-2.32,3.75-10.72,5.53-14.13,2.75a4.39,4.39,0,0,1-1.25-2.52c-1.17-6.37,1.9-9,8.21-7.1l3.84,1.17v-14.55c-4.41-.28-7.66-.13-10.64-1-.72-.2-.54-3.65-.9-6.64Z" transform="translate(622.8 -664.42)"/><path class="cls-2" d="M742.29,1431.08c-3.52,1-5.88,2.48-7.54,1.91-1.83-.62-3.46-3-4.25-4.91-.36-.9,1.4-3.79,2.39-3.89,4.48-.46,9.71-2.8,12.56,3.39.33.71,1.79.9,2.73,1.33.39-.84,1.31-1.89,1.07-2.5-1.1-2.91-2.51-5.71-4.14-9.26l2.12-3.73c-.79-.49-1.34-1.13-1.89-1.14-9.48-.1-19-.26-28.42-.1-3.82.06-3.19,2.79-2.57,5.44.93,4,2.08,8,2.21,12,.22,6.46-.69,13-.39,19.41.18,3.75,1.8,7.43,2.8,11.27l-4.18,4.32c2.35.83,4.67,2.22,7.06,2.37,6.14.38,12.3.21,18.46.28,3.67,0,7.64.53,9.41-3.76,2-4.79,3.21-9.7-.84-15.4l-7.17,9.65a63.74,63.74,0,0,1-7.81-2c-1.43-.55-3.59-2.18-3.5-3.13a23.56,23.56,0,0,1,2.62-8.21c.21-.42,3.62.28,5.11,1.18,2.9,1.75,4,.85,4.13-2.12C742.38,1439.5,742.29,1435.57,742.29,1431.08Z" transform="translate(622.8 -664.42)"/><path class="cls-2" d="M594.42,1465.37c0-3.67,0-6.82,0-10s1.74-4.43,4.6-4.8c5.86-.76,9,3.51,7.18,9.31-.5,1.59-.32,4.12.65,5.31,1.88,2.29,13.69.93,16-1.23-1.07-1.88-2.6-3.58-3.05-5.54-.73-3.15-.32-6.58-1.15-9.69-2.67-10.1-5.68-20.1-8.57-30.13-1.81-6.29-4.39-8.17-11-8.56-4.26-.26-6.11,1.19-6.72,5.74a198.67,198.67,0,0,1-4.64,22.76c-2.08,8.11-4.75,16.06-7.17,24.1Z" transform="translate(622.8 -664.42)"/><path class="cls-2" d="M492.88,1429.71c1.69-2,3.08-3.77,4.64-5.39,1.17-1.22,2.56-2.23,3.85-3.33.92,1.77,2.51,3.5,2.61,5.31a103.52,103.52,0,0,1-.28,14.94c-.57,6.34-1.45,12.66-2.55,18.93-.55,3.16,0,4.87,3.48,4.89,4,0,8,.25,12,.06,1.4-.07,2.75-1.12,4.12-1.73-.63-1.21-1.23-2.44-1.92-3.61s-2.41-2.6-2.37-3.87c.23-8.11.65-16.22,1.33-24.31.49-5.91,2-12-4.9-15.82l7.86-.65c.23,6.36,3.89,12.41,8.64,14,2.55-5.58,1.48-11.34.56-17-.16-1-2.55-2.1-4-2.17q-13.94-.71-27.9-.86c-1.6,0-4.27.84-4.65,1.92C491.37,1416.94,488.56,1422.92,492.88,1429.71Z" transform="translate(622.8 -664.42)"/><path class="cls-2" d="M710.91,1430.54c-.38-4.78-.72-9.68-1.22-14.57a4.34,4.34,0,0,0-1.31-2.59c-3.17-2.8-16.15-3.73-19.58-1.09-8.63,6.63-15.56,14.21-16,26.17-.51,12.65,7.86,26.15,19,29.1,12,3.15,20.8-4.44,18.93-16.68-1.73.71-3.46,1.25-5,2.09-6.47,3.47-11.83,2.27-15.93-3.67a21.38,21.38,0,0,1,.74-24.7c1.82-2.41,3-5.32,4.66-8.42l9,1.19C702.09,1427.53,704.05,1431.81,710.91,1430.54Z" transform="translate(622.8 -664.42)"/><path class="cls-3" d="M731.76,1490.4c2.06-4.28,4-6.56,8.06-3.68C737.74,1488.77,736.24,1492,731.76,1490.4Z" transform="translate(622.8 -664.42)"/><path class="cls-3" d="M779.56,1403.23c-1.58-.42-3.18-.8-4.75-1.28a18,18,0,0,1-2.24-1c1.32-2.86,2.14-3.23,5.92-1.71,1,.4,1.47,2.1,2.18,3.2Z" transform="translate(622.8 -664.42)"/><path class="cls-3" d="M-15.75,942.14c.4,2.6.79,5.19,1.19,7.79l-2.24.39-1.65-7.69Z" transform="translate(622.8 -664.42)"/><path class="cls-3" d="M1298.39,862.86c-.55-2.63-1.09-5.26-1.64-7.89l2.42-.51,1.67,7.88Z" transform="translate(622.8 -664.42)"/><path d="M669.73,1199.94c1.25,8.49-1.21,16.1-6.18,23a35.49,35.49,0,0,0-2.76,3.54c-5.6,10.42-14.78,13.35-26,13.82-11.4.48-22.54.28-33.62-2.68-3.46-.92-7.3-.38-10.82-1.15-1.8-.4-4.69-2.22-4.69-3.39,0-9.62.51-19.25,1-28.87,0-.84,1-1.64,1.88-3.07a55.53,55.53,0,0,1,4.8,3.43c11.94,10.84,25.87,12.73,41,9.14,6.32-1.5,10.11-5.25,10-9.53s-4.06-8.24-10-9.84c-8.65-2.33-17.41-4.31-26-6.83-11.23-3.29-18.29-10.81-20-22.45-1.81-12.36,2.32-22.9,11.45-31.47A46.77,46.77,0,0,1,635,1120.71c9.72.44,19.35,2.82,29,4.36,4,.63,5.59,3.07,5.44,7-.34,8.6-.59,17.21-.93,27.29-2.68-1.41-4.5-1.94-5.76-3.09-13-11.82-27.65-12.42-43.3-6.87-3.81,1.35-7,3.85-6.51,8.35.48,4.22,4,5.93,7.78,6.64,5.87,1.11,11.85,1.67,17.69,2.91C655.42,1170.94,667.29,1183.34,669.73,1199.94Z" transform="translate(622.8 -664.42)"/><path d="M312.89,1009.41c5.16,0,5.35,3.24,5.33,7-.07,10.31,0,20.62,0,30.92h-1.67c0,10.31.1,20.62,0,30.93-.09,6.73-8.57,11.27-14.19,7.51-1.18-.79-1.81-3.15-1.85-4.81-.22-9.65-.39-19.31-.2-29,.23-11.71.85-23.42,1.27-35.13C301.74,1010.81,303.92,1009.45,312.89,1009.41Z" transform="translate(622.8 -664.42)"/><path d="M1410,1158.58c.32,3.66.67,9.39-1.28,10.66-2.63,1.7-8.13,1.14-11.15-.61-2.57-1.48-3.37-6-5-9.2l1.29-.68c.33-3.13-1.75-7.38,4.18-7.67C1405.28,1150.72,1409.49,1152.93,1410,1158.58Z" transform="translate(622.8 -664.42)"/><path d="M1049.56,1043.24c0,19.79,0,39.57,0,59.35,0,3.46.84,7.69-5.11,7.62-8.16-.1-11-1.82-11.14-7.94-.17-7.31-.2-14.64,0-22,.12-3.88-1.66-5.46-5.19-5.76-4.47-.39-9-.7-13.41-1.22s-5.6,1.57-5.48,5.5c.22,7,.37,14,.33,20.94,0,5.53-1,6.2-6.61,5.71-9.4-.83-10-1.61-9.88-10.87.13-9.64,0-19.28,0-28.93h.16c0-10.29,0-20.59,0-30.89,0-6.88,1.34-8,7.91-7.13,8.22,1.13,8.77,1.73,8.74,10.06,0,4.65-.21,9.3-.18,14,0,3.43,1.64,5.59,5.3,6q6.93.78,13.84,1.79c3.29.48,4.47-.84,4.42-4.12-.1-6,.18-12,.18-17.95,0-4.26,2.21-5.36,6.1-5C1049,1033.29,1049.56,1033.84,1049.56,1043.24Z" transform="translate(622.8 -664.42)"/><path d="M1100.31,1101.45c6.1.79,9.91,9.8,6.09,14.75a5,5,0,0,1-3.9,1.28q-21.8-2.57-43.55-5.45c-3.78-.5-5-3.2-4.94-6.89.13-10.65,0-21.31,0-32h.09c0-10.82.07-21.64,0-32.46,0-4.3,1.72-6,6.05-5.5,12.71,1.6,25.44,3,38.13,4.66,4.42.57,7.13,3.41,8,7.77,1.21,5.92-1.65,9-7.63,8.21-7.58-1-15.17-2-22.71-3.24-4-.67-5.87.23-5.84,4.7,0,8.13-.13,8.08,7.95,9.17q9.63,1.3,19.24,2.86c5.29.84,6.08,3,5.31,10.67-.52,5.24-3.87,4.56-7.18,4.13-6.75-.86-13.5-1.85-20.23-2.91-3.68-.58-5.13.67-5.07,4.51.19,13.79-1.16,11.36,10.86,13.19C1087.43,1099.92,1093.88,1100.62,1100.31,1101.45Z" transform="translate(622.8 -664.42)"/><path d="M1184.47,1162.12c4.31.63,6.25,2.69,5.62,7-.8,5.59-1.56,11.19-2.47,16.77-.61,3.79-2.06,4.41-6.17,3-8.27-2.77-16.91-4.46-25.47-6.27-6.33-1.33-12.75-2.35-19.18-3.15-5.36-.66-6.54.57-6.78,5.83a4.17,4.17,0,0,1,0,.5c-1.63,14.75.07,13.13,12.76,15.18,7.7,1.24,15.47,2.17,23.24,2.9,3.21.3,4.53,1.5,4.16,4.65-.76,6.44-1.43,12.88-2.24,19.31-.35,2.85-2,3.13-4.68,2.59-10.23-2.13-20.51-4-30.79-5.9-1.67-.3-3.44,0-6,0,1.3,3,2.47,5,3,7.15,1,3.64,2.25,7.4,2.15,11.07-.13,4.38-1.37,8.51,3.49,11.39.94.55.78,3,1.06,4.22l17.27,9.24c-2.88.62-4.94,1.55-6.93,1.42-15.26-.94-30.52-2-45.76-3.23-6-.5-6.25-1.47-3.63-6.71a23.91,23.91,0,0,0,2.58-8c2.81-25.93,5.56-51.88,8-77.85.61-6.36.25-12.82.24-19.23,0-4.39,3-3.62,5.54-3.22,11.65,1.82,23.29,3.75,34.93,5.62C1160.51,1158.37,1172.47,1160.35,1184.47,1162.12Z" transform="translate(622.8 -664.42)"/><path d="M714.32,1004.92c6.32.3,6.89,1.72,6.44,11-.26,5.29-3.67,4.56-7,4.34-12.4-.83-12.35-.83-12.54,11.73-.22,14.28-.61,28.56-.79,42.84-.06,4.58-1.92,6.62-6.65,6.47-8.16-.24-9.47-1-9.54-6.68,0-3.65,0-7.31,0-11h1c0-12.73-.13-25.46.06-38.19.07-4.55-1.23-6.93-6.19-6.61-2.8.17-5.63-.39-8.45-.39-3.88,0-5.25-2.07-5.26-5.66,0-8.81.63-9.61,9.63-9.34Q694.67,1004,714.32,1004.92Z" transform="translate(622.8 -664.42)"/><path d="M-104.53,1063.89c.12,9.82,1.77,20-.37,29.36-2.7,11.77-.75,23.3-1.71,34.88-.37,4.53-2,7.69-7.06,7.87-2.65.09-5.3.26-9.17.46,0-7.06-.31-13.63.06-20.17.68-11.85.85-11.84-10.47-9.61-12.75,2.52-12.75,2.52-13.22,15.64-.17,4.65,0,9.35-.64,13.93-.31,2.15-1.83,5.32-3.49,5.83-3.65,1.12-7.73,1-11.63.93-.44,0-1.2-3.18-1.15-4.87.59-19.61,1.31-39.21,2-58.81a17.36,17.36,0,0,0,.08-2.49c-1.11-9.91,3.61-10.55,13.3-11.26,1-.07,3.17,2.76,3.22,4.29.19,5.8-.17,11.63-.54,17.43-.27,4.31,1.27,5.77,5.58,4.68A89.17,89.17,0,0,1-127,1089.6c4.29-.43,5.61-2.62,5.6-6.6a148.87,148.87,0,0,1,.62-17.43c.24-2,2.12-5,3.84-5.47,3.49-1,7.39-.84,11.09-.65C-105.32,1059.48-104.55,1062.34-104.53,1063.89Z" transform="translate(622.8 -664.42)"/><path d="M768.56,1130.45c10.3,2.61,10.34,2.61,9.39,13.28-.48,5.47-1,10.93-1.74,16.36-.2,1.52-1.15,2.93-1.76,4.39-1.59-.71-3.49-1.06-4.72-2.17-11.6-10.44-24.76-13.72-39.73-8.92a26,26,0,0,0-6.28,3c-5.39,3.53-5.1,9.57.92,11.93,5.05,2,10.56,2.75,15.88,4,9.53,2.24,19.27,3.94,26.33,11.78,5.9,6.55,9.45,14.12,9.41,23,0,7.8-.68,15.6-1.11,23.4-.17,3.17-1.86,4.54-5.12,4.79-2.38.18-5.47.57-6.9,2.11-5.92,6.37-13.14,5-20.46,4.66-3.09-.14-6.25,1-9.38,1.58a13.8,13.8,0,0,1-3.29.58c-10.92-.88-21.84-1.94-32.77-2.73-3.79-.27-5.32-1.81-5.08-5.64s.05-8,.05-12h.38c.2-4,.26-8,.69-11.93.19-1.65,1-4.41,1.84-4.56a6.6,6.6,0,0,1,5.13,1.73c8.68,9.18,19.56,12.36,31.68,11.55a42,42,0,0,0,13.87-3.41c2.46-1.09,5.44-4.38,5.46-6.7,0-2.63-2.4-6.52-4.82-7.71-6.35-3.13-13.27-5.14-20-7.52-3.74-1.33-7.59-2.39-11.32-3.75-16.51-6-23.39-20-18.25-36.87,4.82-15.83,22-27.51,40.06-28.71,10.2-.68,19.57,1.94,29.2,4C766.94,1130.06,767.75,1130.25,768.56,1130.45Z" transform="translate(622.8 -664.42)"/><path d="M654.07,1002.57c5.84.13,6.87,1.25,6.85,7.12,0,10.14,0,20.29,0,30.43h-.86c0,10.15.22,20.31-.13,30.45-.1,2.89-1.27,7.7-2.92,8.16-3.58,1-7.81-.08-11.71-.71-.67-.1-1.47-2.19-1.45-3.35.19-11.85.58-23.69.81-35.53.13-7,0-14,.08-21,0-3.66.32-7.31.29-11s1.92-4.66,5.05-4.63C651.41,1002.57,652.74,1002.54,654.07,1002.57Z" transform="translate(622.8 -664.42)"/><path d="M41.75,1054.1c.36,4.54-2.53,9.31-3.63,14-.47,2-1,4.76,0,6.14,8.95,12.67,4.68,31.52-9.54,37.89-5.93,2.65-12.76,3.43-19.26,4.62s-12.84,1.76-19.26,2.68c-3.95.57-5.47-1.21-5.39-5,.09-4.82,0-9.65,0-14.48,0-3.66-.6-7.44.11-11,2.67-13.3,1.73-26.71,1.86-40.1,0-4.09,2.33-6.23,6.49-6.76,8.58-1.1,17.11-2.51,25.67-3.67C32.26,1036.69,40.78,1042,41.75,1054.1Z" transform="translate(622.8 -664.42)"/><path d="M448.72,1122c2.55.06,4.06,1.1,3,4.61a68.92,68.92,0,0,0-3.28,16.87c-1,24.75-1.65,49.52-2.24,74.29a91.88,91.88,0,0,0,1.07,13.32c.58,4.73-.41,6.23-5.16,6.13-5.64-.12-11.36-.13-16.88-1.09-2.23-.39-4.85-2.77-5.93-4.93-8.25-16.46-16.15-33.1-24.21-49.65-1.06-2.17-2.44-4.19-3.67-6.28l-1.49.29-1.08,31.81c-.11,3.15-.13,6.32-.37,9.46-.3,4-.49,7.62,4.46,9.23,1.06.35,2,2.79,1.93,4.2-.07,1-1.81,2.34-3.07,2.77a22.69,22.69,0,0,1-6.36,1c-7.59.29-8.57-1.27-6-8.31.47-1.28-.49-3.09-.8-4.65-1.64.71-4.52,1.2-4.69,2.16-.58,3.37-.23,6.9-.23,11-3.71,1.82-6.38.36-10.35-4.16-5.63-6.39-5.5-12.56-4.21-19.67.15-.81,0-2,.52-2.37,8.06-5.46,5.52-14,6-21.44.8-12.6.92-25.25,1-37.89,0-1.86-1.68-3.76-2.67-5.6-.52-1-1.76-1.87-1.73-2.78.17-4.95.17-10,1.24-14.79.37-1.65,3.56-3.65,5.58-3.79a211.32,211.32,0,0,1,22.93-.24c1.16,0,2.66,2.61,3.23,4.27,1.07,3.2,1,6.91,2.46,9.84,7.4,14.47,15.14,28.77,22.82,43.1a12.6,12.6,0,0,0,4.27,4.74c.16-2.8.42-5.6.46-8.4.21-12.8.44-25.61.46-38.42a52.63,52.63,0,0,0-1.15-9.82c-.54-2.84-.1-4.67,3.17-4.71C434.76,1122,441.75,1121.79,448.72,1122Z" transform="translate(622.8 -664.42)"/><path d="M1311.71,1143c.07,6.29-1.63,8.3-7,8.26-8-.06-10-2.09-10-10,0-7,1.69-9.92,5.61-10C1306,1131.28,1311.64,1137.11,1311.71,1143Z" transform="translate(622.8 -664.42)"/><path d="M555.81,1121.85c6.5.06,7.71,1.66,7.37,8.32-.25,5-.66,10-.7,14.94,0,3.22-1.31,3.72-4.32,3.54-15.57-.94-31.16-1.59-46.74-2.37-3.16-.15-4.55,1.55-4.92,4.41-.1.82,0,1.67-.05,2.5-.5,14.66-.91,13.09,13.63,12.87,7.15-.11,14.3-.48,21.43-1,4.19-.32,5.91,1.59,5.89,5.42,0,6.16-.2,12.31-.3,18.47-.05,2.83-1.54,3.59-4.23,3.45-10.44-.52-20.9-.82-31.35-1.31-4.23-.2-6,1.58-6.12,5.82-.43,15.19-.5,15.57,14.61,15.07,12.23-.41,24.44-1.74,36.63-3,3.24-.33,4.69.16,4.66,3.67q-.12,10.23.16,20.47c.09,3.53-1.82,4.9-4.87,4.83q-37.12-.82-74.26-1.84c-2.29-.06-4.56-.52-7.28-.85.76-3.74.54-7,5-8.11,1.36-.35,2.5-4,2.63-6.26.44-7.14.38-14.3.47-21.46.23-20.47.5-40.94.61-61.4a55.08,55.08,0,0,0-1.14-10.86c-.74-3.77,0-5.78,4.27-5.75C509.84,1121.61,532.83,1121.63,555.81,1121.85Z" transform="translate(622.8 -664.42)"/><path d="M156.32,1070.66c2.18,10.58-3.65,23.91-13.27,28.52-13.9,6.65-28,9.43-40-3.92-.4.35-.62.45-.63.57-.72,8.68-6.32,10.48-14,11-10.94.7-21.81,2.49-32.72,3.74-6,.69-6.5.32-6.37-5.58.48-21.45,1.11-42.9,1.61-64.35.09-3.92,1.6-6.21,5.7-6.74,13.36-1.71,26.7-3.56,40.05-5.3,3.46-.45,5.26,1.18,5.61,4.69.38,3.82,0,6.45-1.35,8.28s-3.7,2.76-7.36,3.34c-6.73,1.07-13.53,1.73-20.29,2.59-6.34.8-9.49,6.3-6.47,11.89.57,1.06,3,1.71,4.49,1.56,6.61-.66,13.18-1.72,19.78-2.54,3.63-.45,7.16-.74,7.49,4.57.49,7.77-.69,9.75-6.5,10.39-6.78.75-13.53,1.71-20.32,2.36-4.28.41-6.12,2.51-6.11,6.76,0,10.19-1.28,11.34,9.92,9.82,6.76-.91,13.55-1.65,20.24-2.94,1.48-.28,3.63-2.5,3.65-3.86.06-2.83.34-5.28,3.3-5.82,3.73-.69,7.73-3.1,11.3.53a23.61,23.61,0,0,1,1.85,2.35c4.76,6.4,12.59,8.31,19.1,3.76,2.45-1.71,4.27-5.42,4.67-8.45.16-1.26-3.95-3.79-6.48-4.54-4.91-1.44-10.1-1.93-15.13-3-13.91-3-20.22-15-15-27.81.16-.38.32-.77.5-1.15,6.38-13.81,22.72-21.35,37.13-16.94,8.05,2.47,12.58,8.38,14.48,16.34,1,4.14-.58,6.76-5.13,7.26-5,.55-9.58,1.6-12.2-5-2-5.06-7.52-4.21-11.93-3.37-4.21.8-7.41,3.62-7.88,8-.16,1.53,2,4.3,3.63,4.85a103,103,0,0,0,15,3.48C145.85,1057.47,154.17,1060.19,156.32,1070.66Z" transform="translate(622.8 -664.42)"/><path d="M1278.22,1104.27c9.27,5.89,12.69,16.2,9.42,26.49-2.93,9.22-9.72,13.54-21.29,13.53-17.94,0-31.59-10-34.8-25.34-1.15-5.49.3-7.11,5.86-6.48,4.93.56,8.75,2.54,10.87,7.45,2.64,6.13,8,9.11,14.26,9.14,2.81,0,7-1.8,8.14-4,1.71-3.34-.29-7.22-4-9.09-5.9-3-11.93-5.77-18-8.55-10.23-4.7-16.35-12.35-16.75-23.83-.43-12.08,6-19.87,18-20.75,15.42-1.12,31.56,7.4,35.43,23.67,1.5,6.34.12,7.83-6.39,7-5-.65-8.5-2.78-10.55-7.76-2.65-6.44-11.31-9.32-16.73-6.09-4.59,2.73-4.9,6.68-.52,9.77a79.18,79.18,0,0,0,7.84,4.3C1265.48,1097.17,1272.08,1100.36,1278.22,1104.27Z" transform="translate(622.8 -664.42)"/><path d="M166.78,1235.5c1.19,3.57,2.86,7,4.31,10.47-18.72,2.91-31.13,8.18-39,1.94,2.64-1.41,4.69-3.09,7-3.59,3.64-.79,4.83-2.22,3.45-5.84-5-13.18-1.41-13-16.46-11.29-5,.56-10,.74-14.92,1.06-3,.2-4.86,1.45-5.24,4.76-.62,5.28-1.78,10.5-2.28,15.79-.33,3.52-1.81,4.83-5.28,5-6.64.33-13.26,1-19.88,1.57a17.07,17.07,0,0,1-2.23-.15c3-12.49,6-24.71,8.73-37q7.5-33,14.74-66.12a22.91,22.91,0,0,0,0-8.38c-.65-3.94,1.18-5.81,4.59-6.2,9.92-1.15,19.85-2.09,29.79-3,3.41-.32,4.67,1.09,4.31,4.76s-.54,7.71.56,11.15C148,1178.83,157.41,1207.17,166.78,1235.5Z" transform="translate(622.8 -664.42)"/><path d="M977.32,1243.49c.81,3.77,2.69,7.31,4.69,12.56-9.41-.73-17.34-1.17-25.19-2.16-1.09-.14-2.31-2.92-2.64-4.63-1-5-1.58-10.17-2.18-15.28-.42-3.6-2.46-5.25-5.87-5.57-7.12-.66-14.24-1.39-21.37-2-4-.32-6.79,1.41-7.62,5.53-.74,3.71-3.3,7.25.28,11.18,1.75,1.93-1.6,5.92-5.78,6.12a146.74,146.74,0,0,1-17.41-.43c-7.84-.54-8.36-1.16-8.25-9,.11-7.47,1.2-14.52,7.77-19.59,1.68-1.3,2.82-3.7,3.49-5.82,5-15.83,9.91-31.68,14.47-47.63a76.76,76.76,0,0,0,2.21-15.23c.87-11.52,6.17-16.21,17.69-15.34,7.46.56,14.93,1,22.4,1.39,4.22.23,6,1.66,4.59,6.32a20,20,0,0,0-.26,9.33Q967.61,1198.44,977.32,1243.49Z" transform="translate(622.8 -664.42)"/><path d="M58.81,1143.36c3-.2,5.22.63,3.89,4.73-2.76,8.47-5.62,17-7.61,25.61-5.55,24.11-10.75,48.3-15.88,72.51-.74,3.48-.08,7.24-.48,10.83-.16,1.44-1.31,3.88-2.22,4-11.22,1.25-22.48,2.15-33.74,3.11a8.51,8.51,0,0,1-2.15-.46v-6.6H-5.1c-1.45-5-3-9.89-4.23-14.84-.34-1.35-.42-3.59.36-4.25,3.73-3.13,2.17-6.44,1.07-10-2.62-8.39-5.08-16.83-7.6-25.24a16.75,16.75,0,0,0-.63-1.89c-4.35-9.58-8.92-19.06-13-28.76a61.94,61.94,0,0,1-3.32-12.82c-.87-4.73,1.84-7.22,6.26-7.82,5.93-.81,11.89-1.42,17.85-2,4-.39,6,.8,4.81,5.43a15.26,15.26,0,0,0,.26,7.85c6.83,21.66,13.88,43.26,20.88,64.87a26.19,26.19,0,0,0,1.86,3.06c2-9.58,3.8-17.81,5.54-26,2.92-13.81,6-27.6,8.63-41.46.76-4,.35-8.22.33-12.34,0-2.65,0-5.21,3.47-5.56C44.57,1144.56,51.68,1143.82,58.81,1143.36Z" transform="translate(622.8 -664.42)"/><path d="M1082.48,1147.89c4.34.48,4.67,2.31,2.29,6a56.39,56.39,0,0,0-6.2,11.8q-13.77,40.23-27,80.65c-.91,2.76-.61,6.13-.11,9.09.77,4.65.11,6-4.48,5.8-10.29-.56-20.59-1.23-30.85-2.2-1.38-.13-3.79-2.38-3.67-3.4,1.62-13.62-3.21-26.31-5.59-39.29-3.81-20.74-8.43-41.34-12.8-62a73.93,73.93,0,0,0-2.55-8.07c-1.15-3.47-.51-5.51,3.72-5.22,6.8.47,13.63.64,20.4,1.39,1.31.14,3.54,2.5,3.4,3.59-2,15.65,4.2,30.08,6.55,45.06,1.77,11.31,4.46,22.48,6.79,33.71a11.15,11.15,0,0,0,1,2.21l1.39.09c4-11.9,8.39-23.7,12-35.73,4.11-13.79,7.45-27.82,11.38-41.67.4-1.4,2.62-3.27,4-3.24C1068.89,1146.65,1075.71,1147.13,1082.48,1147.89Z" transform="translate(622.8 -664.42)"/><path d="M286.71,1071.73c5.51-.45,6.87.77,6.82,6.29-.07,9.34-.64,9.78-10.26,10.35-10.62.64-21.23,1.51-31.84,2.31-6,.45-7.18-.57-7.2-6.42,0-9-.22-18,0-27,.36-12.49,1.06-25,1.62-37.45.16-3.49,1.63-5.68,5.47-5.65a20.12,20.12,0,0,0,3-.43c6.5-.93,7.59,0,7.57,6.7q0,11.71,0,23.45h-1.34c0,8.14.11,16.29-.05,24.42-.08,3.9,1.35,5.47,5.32,5.08C272.77,1072.71,279.75,1072.3,286.71,1071.73Z" transform="translate(622.8 -664.42)"/><path d="M537.16,1063.33c4.46-.2,6.55,1.68,6.29,6.17-.09,1.49-.06,3,0,4.49.11,3.77-1.7,5.48-5.45,5.45-7-.06-14,0-21,0v.76h-20c-4,0-6.08-1.66-6-6,.18-9.82-.07-19.65.09-29.47.2-11.91.74-23.81.91-35.72.06-4,1.39-5.76,5.53-5.78,12.65-.08,25.29-.44,37.93-.6,6.29-.08,7.18.89,7.25,7.17.09,7.45-.69,8.51-6.85,8.62-7.32.13-14.64.12-22,.19-6.16.06-6.73,1-6.62,9.18.06,4.83,3.14,4.62,6.5,4.52,6.32-.2,12.64-.3,19-.38,3.69,0,6.47.8,6.54,5.48.11,7.72-.54,9.2-6.12,9.46-6.64.32-13.31.47-20,.31-4.38-.1-6.31,1.18-6.23,5.94.19,10.08.62,10.8,10.7,10.75Q527.44,1063.78,537.16,1063.33Z" transform="translate(622.8 -664.42)"/><path d="M773,1008c9.85,1.57,9.86,1.58,5.38,10.5-3.58,7.12-6.74,14.48-10.86,21.26-6.65,11-8.79,22.66-8.23,35.24.38,8.7-.54,9.3-9.29,8.89-6.53-.3-7.71-1.18-6.81-7.87,2-14.85-2-28.25-8.68-41.22-2.34-4.58-4.4-9.29-6.57-14-1.62-3.46-3.21-6.92-4.83-10.38s-.57-5.1,3.19-5.09c1.83,0,3.67.2,5.49,0,5.75-.5,8.92,2.3,10.74,7.55,2,5.79,4.39,11.46,6.68,17.15.66,1.65,1.56,3.2,3,6,3.51-8.12,6.47-14.93,9.39-21.76C764.33,1007.84,766.07,1006.85,773,1008Z" transform="translate(622.8 -664.42)"/><path d="M1190.79,1053.66c4.44.61,6.68,2.88,6.63,7.62-.16,16,.35,32-.32,47.9-.55,13.26-8.81,20.36-22,20.63-19.82.39-33.93-13.29-34-33,0-7.15,0-14.31,0-21.46H1141c0-8,0-16,0-24,0-4.07,2.12-5.27,5.77-4.71,1,.15,2,.4,2.94.55,7.22,1.15,7.78,1.84,7.86,9.37.15,14,.29,27.94.51,41.91.13,8.34,4.23,13.42,11.51,14.51,5.24.78,9.49-1.74,10.35-7a90.89,90.89,0,0,0,.89-14.39c0-11.15-.23-22.29-.26-33.43,0-5.25,1.18-6.12,6.33-5.23C1188.16,1053.24,1189.47,1053.48,1190.79,1053.66Z" transform="translate(622.8 -664.42)"/><path d="M436.76,1010.17c.45,6.64-.92,8.32-6.43,8.73-1.33.09-2.65.34-4,.3-8.67-.25-9.56-1.12-9.58,10.19,0,14.12-.39,28.24-.63,42.35-.14,8.17-6.1,12.07-13.59,8.59-1.24-.58-2.15-3.2-2.14-4.86.05-15.38.15-30.76.63-46.12.26-8.37-.12-9.11-8.48-9-1.33,0-2.66.09-4,0-5.74-.19-7.7-1.76-7.76-6.14-.09-6.23,2.07-8.64,7.91-8.91,6.8-.31,13.59-.69,20.39-1v-.45c6.81,0,13.62.16,20.42,0C434.16,1003.69,436.46,1005.89,436.76,1010.17Z" transform="translate(622.8 -664.42)"/><path d="M831.63,1018c.09,10.81,0,21.61,0,32.41H831c0,10.65,0,21.29,0,31.94,0,5.54-1.3,6.64-6.9,6.24-9.17-.65-9.45-.85-9.4-10,.1-20.28.37-40.56.44-60.84,0-4.46,1.26-6.7,6.33-6.47C830,1011.66,831.58,1012.32,831.63,1018Z" transform="translate(622.8 -664.42)"/><path d="M897.48,1023.68c.37,7.81.18,15.64.14,23.46-.09,13.64-.37,27.28-.25,40.91,0,4.59-1.94,6.46-6.17,6.42-5.93,0-10.5-2.24-13.17-8-5.12-11-10.48-21.83-15.76-32.72-1.29-2.65-2.67-5.26-4-7.89L857,1046v20.49c0,5.66.06,11.32,0,17-.08,5.85-1.38,7.29-6.33,7.34-7.85.08-10-1.22-9.93-7,.06-21.63.31-43.26.48-64.88,0-3.85,1.75-5.68,5.81-5.75,8.13-.12,11.59,2,15.08,9.57,5.15,11.13,10.43,22.2,15.69,33.28.76,1.6,1.68,3.12,2.53,4.67l1.68-.24q0-17.88,0-35.77c0-7.75,5.43-11.28,12.42-7.54C896.13,1018.07,897.37,1021.39,897.48,1023.68Z" transform="translate(622.8 -664.42)"/><path d="M1383.42,1158.42c2.11,6.77,1.25,7.24-5.88,6.37-8.09-1-12.18-4.81-12.91-13-.39-4.36-3.5-7-8-7.59-1.65-.21-3.28-.47-4.91-.77-10.53-1.9-10.54-1.91-14.93,7.7-1.57,3.43-3.86,4.83-7.9,4.18-10.91-1.78-11.23-2.07-7.77-12.46,6.22-18.71,12.51-37.4,18.6-56.16,1.33-4.12,3.34-6.45,7.19-5.47,9.41.41,13.42,3.39,16,11.66Q1373.21,1125.63,1383.42,1158.42Z" transform="translate(622.8 -664.42)"/><path d="M1227.29,1127.16l-.79.48c-.12,1.8-.18,3.61-.41,5.39a3.78,3.78,0,0,1-.83,2.22c-2,1.83-13.35-.34-13.9-3a59.32,59.32,0,0,1-.89-12.65c0-.78,2.11-2.26,3.19-2.2,3.26.16,7.11,0,9.57,1.7C1225.4,1120.63,1226,1124.4,1227.29,1127.16Z" transform="translate(622.8 -664.42)"/><path d="M480.33,1064.15c4.46-.23,6.6,1.45,6.15,6.07a39.56,39.56,0,0,0,0,5c.11,3.58-1.7,5.13-5.17,5.14-13.15,0-26.3,0-39.45.19-3.58,0-4.58-1.69-4.56-4.91.07-11,0-21.92,0-32.88h2c0-10.47.06-20.94,0-31.4-.05-6.16.69-7.05,6.66-7.13,1.5,0,3,.09,4.5,0,3.12-.21,4.86,1.24,4.77,4.3-.26,9.24-.82,18.48-1,27.72-.18,8.48-.2,17,.19,25.43,0,1.13,2.9,3,4.48,3C466,1064.82,473.19,1064.52,480.33,1064.15Z" transform="translate(622.8 -664.42)"/><path d="M-166,1074.71c.32,8.24-.56,9.3-8.82,10.7-1.47.25-2.92.71-4.4.86-5.46.54-7.08,4-7.22,8.91-.42,15.13-1,30.26-1.51,45.38-.22,6.14-3.61,10.33-9.11,11.4-4.45.87-7.15-1.08-7.34-5.61-.18-4.15,0-8.31,0-12.46h1.88c0-12.43,0-24.86,0-37.28,0-5.22-1.07-6.13-6.28-5-1.95.4-3.88,1-5.85,1.27-2.89.38-6.46,2.49-7.82-2.26-1.77-6.16.08-11.2,4.84-12.21,10.24-2.18,20.55-4,30.84-5.94,4.9-.92,9.8-1.84,14.71-2.72S-166.17,1069.7-166,1074.71Z" transform="translate(622.8 -664.42)"/><path d="M637.36,1019.89c2.38,7.2,1.07,9-6.89,9-4,.17-8-.51-9.69-5.41s-5-7.33-10-7.57c-5.24-.25-9.77,1.59-12.25,6.19a37.63,37.63,0,0,0-1.59,34.09,12.17,12.17,0,0,0,11.41,7.62,11.75,11.75,0,0,0,11.29-6.85c2.27-4.54,5.89-6.6,10.67-7,5.61-.45,8.05,2.65,6.51,8.07-3.21,11.22-15.36,20.92-27.28,21.77-11.59.83-23.85-6.59-28.45-18.07-6-15.09-5.63-30.36,1.55-44.93,5.73-11.6,15.55-17.58,28.72-16.85A28.37,28.37,0,0,1,637.36,1019.89Z" transform="translate(622.8 -664.42)"/><path d="M-48.43,1054.87c.07,8.77-.73,9.88-9.46,11.28-7,1.13-14.13,2.12-21.14,3.47-5.24,1-7.78,8-4.46,12.16.66.82,2.66,1,3.95.82,6.41-.92,12.76-2.2,19.18-3.09,3.31-.46,7.21-1.68,7.91,3.86.86,6.8-.75,10.1-6,11-6.38,1.1-12.78,2.13-19.2,3-7.08.94-11.18,9.83-6.87,15.66.78,1.06,3.24,1.48,4.79,1.27,7.4-1,14.74-2.52,22.13-3.58,3.17-.45,7.26-2.46,8.51,2.91,1.46,6.31-1.09,11.85-6.11,12.74-13.57,2.41-27.16,4.73-40.78,6.86-5.56.87-6.38-.07-6.44-5.76,0-4.66,0-9.32,0-14,0-.33,0-.66,0-1,.72-16.94,1.3-33.9,2.37-50.83.12-1.85,2.83-4.72,4.74-5.09,13.52-2.67,27.14-4.82,40.74-7.11C-50.42,1048.77-48.47,1050.42-48.43,1054.87Z" transform="translate(622.8 -664.42)"/><path d="M979.83,1025.47c6.18.66,7.79,2.77,6.93,8.87-.25,1.8-.63,3.58-1.12,6.28-4.12-.2-7.92-.18-11.67-.62-6.48-.77-6.69-.68-6.71,6.06q-.07,24.23-.17,48.45c0,6.29-1.18,7.24-7.49,6.34-8.87-1.26-9.06-1.41-9-10.2.12-15.47.22-31,.56-46.41.11-4.82-1.4-7.22-6.54-7-2.28.12-4.61-.76-6.92-.79-5,0-6.65-2.63-6.64-7.29,0-7.81.71-8.68,8.56-7.92C953,1022.59,966.43,1024,979.83,1025.47Z" transform="translate(622.8 -664.42)"/><path d="M212.33,1021.85c.07,3.89,2,8.82-3.69,10.51a44.57,44.57,0,0,1-9.34,1.21c-4.84.34-6.94,2.64-7,7.64-.27,15.11-.87,30.21-1.35,45.32-.28,8.71-5.93,12.6-13.89,9.35-1-.41-1.91-2.24-2-3.46-.24-4.14-.09-8.29-.09-12.44h-.37c.6-12.07,1.24-24.14,1.79-36.22.35-7.58-.37-8.2-7.7-7.09-.82.13-1.63.32-2.46.42-9.12,1.13-10,.17-9.67-9.09.15-3.84,1.82-5.77,5.66-6.13,14.89-1.39,29.76-2.89,44.64-4.3C209.93,1017.28,212.28,1018.5,212.33,1021.85Z" transform="translate(622.8 -664.42)"/><path d="M278,1227c.07,1.28-3.43,2.76-5.75,4.48,1.44,8.36,1.44,8.39-7.83,9.17-5,.42-9.95.92-14.92.91-1.6,0-4.28-1.19-4.63-2.38-4.56-15.39-14.14-28.12-21.93-41.77-2.61-4.56-5.79-8.81-8.71-13.2l-1.64.2c0,4.13-.08,8.26,0,12.39.28,11.3.53,22.61,1.06,33.91a25.25,25.25,0,0,0,2,8.54c1.32,3.09,1.11,4.86-2.52,5.13-6.47.49-12.94.87-19.41,1.31-3.33.22-4.33-1.63-4.36-4.61-.37-29.58-.66-59.16-1.28-88.73-.1-5.06-1.48-10.14-2.62-15.13-1.19-5.21-.65-6.38,4.55-6.8,6.8-.54,13.61-.85,20.42-1.33,3.12-.23,4.67.6,5.3,4.18a38.29,38.29,0,0,0,4.3,12.42c8.22,14.22,16.85,28.19,26.45,42.16,0-6.84.24-13.69-.06-20.52-.52-11.93-1.33-23.86-2.14-35.77-.2-2.86.62-4.53,3.61-4.75,6.63-.49,13.27-1.22,19.9-1.24,1.55,0,4,2.24,4.46,3.87a91.43,91.43,0,0,1,2.31,14.76c.14,1.56-1,3.25-1.58,4.87-1.08,3-3.18,5.94-3.14,8.89.19,15.12.86,30.24,1.57,45.35.1,2.17.65,5.19,2.13,6.28C280,1214.34,277.67,1221.08,278,1227Z" transform="translate(622.8 -664.42)"/><path d="M372.19,1005.88c4-.3,6,1.14,5.67,5.37a37.36,37.36,0,0,0,0,4.49c.12,3.89-1.6,5.91-5.64,5.83-1.82,0-3.64.21-5.47.31-8.56.47-8.46.47-8.58,8.8q-.33,21.67-.88,43.36c-.23,9-5.25,12.44-13.74,9.3a4.3,4.3,0,0,1-2.17-3.27c0-9.42.2-18.84.36-28.26.14-8.14.37-16.28.4-24.41,0-2.7-1.4-4.34-4.43-4.09-2.81.23-5.64.24-8.45.47-3.4.27-6.42.22-6.91-4.28-.76-7,.61-10.18,5.6-10.75,6.76-.77,13.59-.94,20.39-1.35,1.16-.08,2.32-.12,3.49-.17a.09.09,0,0,1,0-.05C358.61,1006.75,365.41,1006.38,372.19,1005.88Z" transform="translate(622.8 -664.42)"/><path d="M1368.81,863a85.81,85.81,0,0,1,5.38,33.28c-.65,27.11-7.5,52.22-25.42,73.24-23.08,27.07-63.32,20.94-76.79-12-11.83-28.93-8.7-57.95,2.74-86.36,5.43-13.49,13.37-25.33,26-33.18C1325.61,822.48,1357.82,834.38,1368.81,863Zm-21.23,33.69c-1.79-7.5-2.55-15.45-5.58-22.42-5.83-13.43-22.4-16.07-32.64-5.6a46.58,46.58,0,0,0-8.41,12.17c-6.72,13.87-9.15,28.78-8.29,44a53.4,53.4,0,0,0,4.16,18.26c6,13.62,22.07,16.22,32.48,5.65a40.78,40.78,0,0,0,6.7-9.2C1343.14,926.32,1345.78,911.88,1347.58,896.7Z" transform="translate(622.8 -664.42)"/><path class="cls-3" d="M1342,874.28c3,7,3.79,14.92,5.58,22.42-1.8,15.18-4.44,29.62-11.58,42.9a40.78,40.78,0,0,1-6.7,9.2c-10.41,10.57-26.49,8-32.48-5.65a53.4,53.4,0,0,1-4.16-18.26c-.86-15.26,1.57-30.17,8.29-44a46.58,46.58,0,0,1,8.41-12.17C1319.6,858.21,1336.17,860.85,1342,874.28Z" transform="translate(622.8 -664.42)"/><path d="M1256.37,823c-7.47,49.11-14.9,98-22.42,147.44l-26.65-4c-10.29-32.45-20.48-64.59-30.65-96.68-3.85,30.06-7.68,60-11.59,90.62L1138.82,957c6.41-49.22,12.8-98.23,19.26-147.85,8.35,1.09,17.49,2.23,26.6,3.57.79.11,1.73,1.39,2,2.31q12.94,40.29,25.72,80.64c1.44,4.55,2.67,9.17,4.26,14.64,4.28-30.86,8.44-60.84,12.66-91.25Z" transform="translate(622.8 -664.42)"/><path d="M1129.38,844.39H1100.8c-.26-1.93-.42-4.22-.9-6.44-1.72-8-10.22-13.07-18.45-11.18a14,14,0,0,0-10.51,16.75c1,4.87,4.32,7.76,8.55,9.67,5,2.26,10.06,4.32,15.17,6.3,26.17,10.15,31.21,30.7,28,53a72.41,72.41,0,0,1-2.34,9.67c-7.32,25.57-27,33.53-49.66,29.59-24.42-4.24-38.53-18.33-37.3-52.92h27.7c0,1.69-.07,3.47,0,5.24.57,12.33,10.9,20.36,22.52,17.67,7-1.63,10.16-6.6,11.2-13.08,1-6.14-.25-11.91-6.22-15.07-7.18-3.79-14.55-7.24-22-10.43-21.34-9.11-26.17-29.31-23.32-49,2.88-19.92,17.18-34.37,36.29-37.17,25.63-3.76,47.93,14.29,49.5,40.05C1129.16,839.35,1129.25,841.63,1129.38,844.39Z" transform="translate(622.8 -664.42)"/><path d="M1024.7,793.27c-1,10.37-2.12,21.19-3.18,31.77l-54.34-5.82c-.82,9.06-1.57,17.43-2.37,26.31l48.49,3.85c-1,10.46-2.09,21.15-3.14,31.77l-48-5.25c-.91,10.12-1.75,19.64-2.68,30l54.95,4.72c-1.06,10.62-2.14,21.57-3.14,31.63l-80.63-7.71c4.08-49.29,8.2-99,12.3-148.64Z" transform="translate(622.8 -664.42)"/><path d="M911.19,930.81a12.25,12.25,0,0,1,0,2.13L882,930.84c-2.61-13.51-5.11-26.68-7.74-39.83a44.58,44.58,0,0,0-2.54-8.56c-2.59-6.18-7.06-9.88-14.12-9.9-3.64,0-7.27-.33-11.48-.54-1,18.72-2,37.25-3,56.13l-26.68-1.67c2.86-49.82,5.69-99.32,8.54-149.06,18.13,1.25,36.56,2.23,54.93,3.88,16.71,1.5,27.73,12.68,30.21,29.43,1.63,11-.07,21.56-3.52,31.88-3,9-9.12,15.23-18.8,18.39,7.46,4.65,9.75,11.91,11.53,19.43Q905.27,905.61,911.19,930.81ZM881.11,833.1c2.71-8.08,1.33-16.63-3.44-19.83a12.51,12.51,0,0,0-5.51-2c-7.2-.73-14.44-1.16-22-1.73-.7,10.66-1.37,20.88-2.08,31.55,7.13.5,13.56,1.05,20,1.38S878.94,839.6,881.11,833.1Z" transform="translate(622.8 -664.42)"/><path class="cls-3" d="M877.67,813.27c4.77,3.2,6.15,11.75,3.44,19.83-2.17,6.5-6.45,9.67-13,9.33s-12.88-.88-20-1.38c.71-10.67,1.38-20.89,2.08-31.55,7.52.57,14.76,1,22,1.73A12.51,12.51,0,0,1,877.67,813.27Z" transform="translate(622.8 -664.42)"/><path d="M805.28,776.18c-.55,10.68-1.13,21.83-1.68,32.49l-53.36-3.2v29.39l45.29,1.65c-.5,10.18-1,21-1.54,31.7l-45.93-2.85-2,56.84H719.64c1.78-50.19,3.53-99.64,5.3-149.37Z" transform="translate(622.8 -664.42)"/><path d="M649.94,919.6H619.89c-3.28-13.08-6.43-25.77-9.68-38.43a57,57,0,0,0-2.55-7.53c-3.42-8.26-7.53-10.95-16.46-11H581.07v56H553.76V769.73c6.94,0,14.34-.05,21.74,0q17,.16,33.94.47c17.3.33,28.31,12.58,31.65,28,2.42,11.15,1.14,22.24-2.13,33-2.57,8.48-8.21,14.65-15.82,17.56,3.06,4.3,6.9,7.76,8.33,12C637.94,880.13,643.74,899.65,649.94,919.6ZM613.7,820.48c1.8-8.07-.61-16.06-5.72-18.68a9.09,9.09,0,0,0-3.77-1.16c-7.58-.11-15.17,0-22.94,0V832c7,0,13.6.16,20.2,0C608.23,831.77,612,828.05,613.7,820.48Z" transform="translate(622.8 -664.42)"/><path class="cls-3" d="M608,801.8c5.11,2.62,7.52,10.61,5.72,18.68-1.69,7.57-5.47,11.29-12.23,11.49-6.6.2-13.21,0-20.2,0V800.59c7.77,0,15.36-.06,22.94,0A9.09,9.09,0,0,1,608,801.8Z" transform="translate(622.8 -664.42)"/><path d="M523.75,800.1c6.86,14.12,8.82,29.5,9,45-.48,19.07-3.86,37.3-13.37,54.14-17.73,31.37-60.61,32.08-79.26.52-11.74-19.87-15.4-41.56-14.38-64.21.66-14.55,3.82-28.6,10.67-41.65,15.24-29,51.12-36,73.86-13.87C515.89,785.57,520.25,792.89,523.75,800.1Zm-25.52,79.45c5.45-10.47,6.4-21.88,6.61-33.71-.19-12.26-1.34-24.63-7.65-35.87-5-8.89-13.27-13-22.45-11.25-8.3,1.62-13.22,7.31-16.34,14.69-5.53,13.09-5.93,26.82-4.56,40.68,1,9.82,2.94,19.41,8.51,27.83,3.54,5.35,8.22,9.05,14.91,9.71C487.15,892.59,493.84,888,498.23,879.55Z" transform="translate(622.8 -664.42)"/><path class="cls-3" d="M504.84,845.84c-.21,11.83-1.16,23.24-6.61,33.71-4.39,8.41-11.08,13-21,12.08-6.69-.66-11.37-4.36-14.91-9.71-5.57-8.42-7.55-18-8.51-27.83-1.37-13.86-1-27.59,4.56-40.68,3.12-7.38,8-13.07,16.34-14.69,9.18-1.79,17.46,2.36,22.45,11.25C503.5,821.21,504.65,833.58,504.84,845.84Z" transform="translate(622.8 -664.42)"/><path d="M408.39,771.93v33.56H356.92v29.7l46.7-2.35v32.61h-45.1c1,19.65,2,38.49,3.05,57.74l-26.47,1.35c-2.53-49.78-5.05-99.28-7.58-149.08Z" transform="translate(622.8 -664.42)"/><path d="M260.7,897.05c.69,10.45,1.41,21.31,2.11,31.73L182,934.64c-4.22-49.21-8.47-98.83-12.73-148.56l81.93-6.45c.72,10.38,1.47,21.28,2.21,31.91l-54.6,3.35c.67,8.94,1.29,17.17,2,26.28L249.29,837c.73,10.32,1.5,21.17,2.25,31.82l-48.32,2.78c.81,10.18,1.57,19.74,2.4,30Z" transform="translate(622.8 -664.42)"/><path d="M140.49,815.51c17.12,32.44,19.64,66.24,5.67,100.4-6.32,15.45-19.63,23.12-35.74,25.35-15.79,2.18-31.7,3.51-46.92,5.15-5.57-49.6-11.12-99-16.73-148.8,17.76-1.47,36.39-3.9,55-4.3C118.52,793,132.53,800.42,140.49,815.51ZM123.78,894.6c6.35-19.88,4.5-39.42-4.63-58.05-4.17-8.5-11.87-12.43-21.35-11.95-6.76.34-13.49,1.3-20.66,2,3,28.55,6,56.72,9.07,85.38,6-.57,11.06-1.14,16.18-1.54C112.87,909.65,120.56,904.67,123.78,894.6Z" transform="translate(622.8 -664.42)"/><path class="cls-3" d="M119.15,836.55c9.13,18.63,11,38.17,4.63,58.05-3.22,10.07-10.91,15-21.39,15.87-5.12.4-10.23,1-16.18,1.54-3-28.66-6-56.83-9.07-85.38,7.17-.73,13.9-1.69,20.66-2C107.28,824.12,115,828.05,119.15,836.55Z" transform="translate(622.8 -664.42)"/><path d="M15.61,824.8c14,19.72,19,42.2,18.76,66-.13,14.91-2.6,29.44-9.64,42.87C9,963.59-28.62,968-50.52,942.21-66,924-72,902.1-73.95,878.81c-.22-2.64-.31-5.3-.43-7.57.48-12.91,1.85-25.23,6.75-36.94,7.43-17.73,20.24-28.59,39.65-30.5C-9.34,802,5,809.88,15.61,824.8ZM7.85,890.72l-1.2-.26c0-16.7-4.14-34-10.61-44-4.89-7.55-11.3-12.78-20.91-11.77-10.17,1.07-15.83,7.52-18.81,16.81-3.81,11.87-3.31,23.92-1.28,36,1.89,11.21,4.81,22.11,11.94,31.29,10.63,13.7,29.18,11.56,35.49-4.53C5.38,906.85,6.13,898.59,7.85,890.72Z" transform="translate(622.8 -664.42)"/><path class="cls-3" d="M6.65,890.46l1.2.26c-1.72,7.87-2.47,16.13-5.38,23.54-6.31,16.09-24.86,18.23-35.49,4.53-7.13-9.18-10-20.08-11.94-31.29-2-12.06-2.53-24.11,1.28-36,3-9.29,8.64-15.74,18.81-16.81,9.61-1,16,4.22,20.91,11.77C2.51,856.46,6.63,873.76,6.65,890.46Z" transform="translate(622.8 -664.42)"/><path d="M-86.4,915.75c4.64,19.42-7.82,46.21-25.32,54.66-20.92,10.09-44.8,4.55-59.64-13.86-11-13.71-16.47-29.83-19.62-46.81-3.42-18.48-4.5-37,1.7-55.19,10.7-31.44,47.38-44.34,73.24-25.55,10.89,7.91,16.94,19.29,21.06,32.5l-25.68,10.89c-2.46-4.4-4.26-9-7.21-12.64-10.47-13-28.21-10.12-34.21,5.44a46.12,46.12,0,0,0-3,13.54c-1.07,17.55,1.76,34.46,9.85,50.23,3.34,6.49,8,12,15.22,14.31,11.95,3.8,23.36-4.06,25.51-17.52.58-3.57.59-7.24.9-11.38Z" transform="translate(622.8 -664.42)"/><path class="cls-2" d="M272.23,1231.52c2.32-1.72,5.82-3.2,5.75-4.48-.31-6,2-12.7-4.39-17.41-1.48-1.09-2-4.11-2.13-6.28-.71-15.11-1.38-30.23-1.57-45.35,0-3,2.06-5.92,3.14-8.89.59-1.62,1.72-3.31,1.58-4.87a91.43,91.43,0,0,0-2.31-14.76c-.42-1.63-2.91-3.87-4.46-3.87-6.63,0-13.27.75-19.9,1.24-3,.22-3.81,1.89-3.61,4.75.81,11.91,1.62,23.84,2.14,35.77.3,6.83.06,13.68.06,20.52-9.6-14-18.23-27.94-26.45-42.16a38.29,38.29,0,0,1-4.3-12.42c-.63-3.58-2.18-4.41-5.3-4.18-6.81.48-13.62.79-20.42,1.33-5.2.42-5.74,1.59-4.55,6.8,1.14,5,2.52,10.07,2.62,15.13.62,29.57.91,59.15,1.28,88.73,0,3,1,4.83,4.36,4.61,6.47-.44,12.94-.82,19.41-1.31,3.63-.27,3.84-2,2.52-5.13a25.25,25.25,0,0,1-2-8.54c-.53-11.3-.78-22.61-1.06-33.91-.1-4.13,0-8.26,0-12.39l1.64-.2c2.92,4.39,6.1,8.64,8.71,13.2,7.79,13.65,17.37,26.38,21.93,41.77.35,1.19,3,2.38,4.63,2.38,5,0,10-.49,14.92-.91C273.67,1239.91,273.67,1239.88,272.23,1231.52Z" transform="translate(622.8 -664.42)"/><path class="cls-2" d="M389.92,1175.52l1.49-.29c1.23,2.09,2.61,4.11,3.67,6.28,8.06,16.55,16,33.19,24.21,49.65,1.08,2.16,3.7,4.54,5.93,4.93,5.52,1,11.24,1,16.88,1.09,4.75.1,5.74-1.4,5.16-6.13a91.88,91.88,0,0,1-1.07-13.32c.59-24.77,1.22-49.54,2.24-74.29a68.92,68.92,0,0,1,3.28-16.87c1.07-3.51-.44-4.55-3-4.61-7-.17-14,.06-21,.17-3.27,0-3.71,1.87-3.17,4.71a52.63,52.63,0,0,1,1.15,9.82c0,12.81-.25,25.62-.46,38.42,0,2.8-.3,5.6-.46,8.4a12.6,12.6,0,0,1-4.27-4.74c-7.68-14.33-15.42-28.63-22.82-43.1-1.5-2.93-1.39-6.64-2.46-9.84-.57-1.66-2.07-4.23-3.23-4.27a211.32,211.32,0,0,0-22.93.24c-2,.14-5.21,2.14-5.58,3.79-1.07,4.79-1.07,9.84-1.24,14.79,0,.91,1.21,1.81,1.73,2.78,1,1.84,2.68,3.74,2.67,5.6-.08,12.64-.2,25.29-1,37.89-.48,7.42,2.06,16-6,21.44-.48.33-.37,1.56-.52,2.37-1.29,7.11-1.42,13.28,4.21,19.67,4,4.52,6.64,6,10.35,4.16,0-4.13-.35-7.66.23-11,.17-1,3-1.45,4.69-2.16.31,1.56,1.27,3.37.8,4.65-2.6,7-1.62,8.6,6,8.31a22.69,22.69,0,0,0,6.36-1c1.26-.43,3-1.75,3.07-2.77.09-1.41-.87-3.85-1.93-4.2-4.95-1.61-4.76-5.25-4.46-9.23.24-3.14.26-6.31.37-9.46Z" transform="translate(622.8 -664.42)"/><path class="cls-2" d="M475.05,1235.29c2.72.33,5,.79,7.28.85q37.12,1,74.26,1.84c3,.07,5-1.3,4.87-4.83q-.27-10.23-.16-20.47c0-3.51-1.42-4-4.66-3.67-12.19,1.21-24.4,2.54-36.63,3-15.11.5-15,.12-14.61-15.07.12-4.24,1.89-6,6.12-5.82,10.45.49,20.91.79,31.35,1.31,2.69.14,4.18-.62,4.23-3.45.1-6.16.28-12.31.3-18.47,0-3.83-1.7-5.74-5.89-5.42-7.13.54-14.28.91-21.43,1-14.54.22-14.13,1.79-13.63-12.87,0-.83-.05-1.68.05-2.5.37-2.86,1.76-4.56,4.92-4.41,15.58.78,31.17,1.43,46.74,2.37,3,.18,4.29-.32,4.32-3.54,0-5,.45-10,.7-14.94.34-6.66-.87-8.26-7.37-8.32-23-.22-46-.24-68.95-.4-4.24,0-5,2-4.27,5.75a55.08,55.08,0,0,1,1.14,10.86c-.11,20.46-.38,40.93-.61,61.4-.09,7.16,0,14.32-.47,21.46-.13,2.22-1.27,5.91-2.63,6.26C475.59,1228.3,475.81,1231.55,475.05,1235.29Z" transform="translate(622.8 -664.42)"/><path class="cls-2" d="M588.55,1201.11c-.91,1.43-1.84,2.23-1.88,3.07-.49,9.62-1,19.25-1,28.87,0,1.17,2.89,3,4.69,3.39,3.52.77,7.36.23,10.82,1.15,11.08,3,22.22,3.16,33.62,2.68,11.21-.47,20.39-3.4,26-13.82a35.49,35.49,0,0,1,2.76-3.54c5-6.87,7.43-14.48,6.18-23-2.44-16.6-14.31-29-31.36-32.63-5.84-1.24-11.82-1.8-17.69-2.91-3.75-.71-7.3-2.42-7.78-6.64-.5-4.5,2.7-7,6.51-8.35,15.65-5.55,30.35-5,43.3,6.87,1.26,1.15,3.08,1.68,5.76,3.09.34-10.08.59-18.69.93-27.29.15-3.94-1.45-6.38-5.44-7-9.66-1.54-19.29-3.92-29-4.36a46.77,46.77,0,0,0-35.09,12.85c-9.13,8.57-13.26,19.11-11.45,31.47,1.71,11.64,8.77,19.16,20,22.45,8.6,2.52,17.36,4.5,26,6.83,5.9,1.6,9.9,5.67,10,9.84s-3.73,8-10,9.53c-15.11,3.59-29,1.7-41-9.14A55.53,55.53,0,0,0,588.55,1201.11Z" transform="translate(622.8 -664.42)"/><path class="cls-2" d="M692.58,1223.81h-.38c0,4,.2,8-.05,12s1.29,5.37,5.08,5.64c10.93.79,21.85,1.85,32.77,2.73a13.8,13.8,0,0,0,3.29-.58c3.13-.57,6.29-1.72,9.38-1.58,7.32.35,14.54,1.71,20.46-4.66,1.43-1.54,4.52-1.93,6.9-2.11,3.26-.25,5-1.62,5.12-4.79.43-7.8,1.08-15.6,1.11-23.4,0-8.84-3.51-16.41-9.41-23-7.06-7.84-16.8-9.54-26.33-11.78-5.32-1.25-10.83-2-15.88-4-6-2.36-6.31-8.4-.92-11.93a26,26,0,0,1,6.28-3c15-4.8,28.13-1.52,39.73,8.92,1.23,1.11,3.13,1.46,4.72,2.17.61-1.46,1.56-2.87,1.76-4.39.73-5.43,1.26-10.89,1.74-16.36.95-10.67.91-10.67-9.39-13.28-.81-.2-1.62-.39-2.43-.56-9.63-2-19-4.64-29.2-4-18,1.2-35.24,12.88-40.06,28.71-5.14,16.89,1.74,30.83,18.25,36.87,3.73,1.36,7.58,2.42,11.32,3.75,6.72,2.38,13.64,4.39,20,7.52,2.42,1.19,4.84,5.08,4.82,7.71,0,2.32-3,5.61-5.46,6.7a42,42,0,0,1-13.87,3.41c-12.12.81-23-2.37-31.68-11.55a6.6,6.6,0,0,0-5.13-1.73c-.87.15-1.65,2.91-1.84,4.56C692.84,1215.84,692.78,1219.83,692.58,1223.81Z" transform="translate(622.8 -664.42)"/><path class="cls-2" d="M982,1256.05c-2-5.25-3.88-8.79-4.69-12.56q-9.71-45-19-90.19a20,20,0,0,1,.26-9.33c1.37-4.66-.37-6.09-4.59-6.32-7.47-.41-14.94-.83-22.4-1.39-11.52-.87-16.82,3.82-17.69,15.34a76.76,76.76,0,0,1-2.21,15.23c-4.56,16-9.51,31.8-14.47,47.63-.67,2.12-1.81,4.52-3.49,5.82-6.57,5.07-7.66,12.12-7.77,19.59-.11,7.81.41,8.43,8.25,9a146.74,146.74,0,0,0,17.41.43c4.18-.2,7.53-4.19,5.78-6.12-3.58-3.93-1-7.47-.28-11.18.83-4.12,3.6-5.85,7.62-5.53,7.13.58,14.25,1.31,21.37,2,3.41.32,5.45,2,5.87,5.57.6,5.11,1.22,10.23,2.18,15.28.33,1.71,1.55,4.49,2.64,4.63C964.67,1254.88,972.6,1255.32,982,1256.05Z" transform="translate(622.8 -664.42)"/><path class="cls-2" d="M76.2,1255.22a17.07,17.07,0,0,0,2.23.15c6.62-.53,13.24-1.24,19.88-1.57,3.47-.17,5-1.48,5.28-5,.5-5.29,1.66-10.51,2.28-15.79.38-3.31,2.21-4.56,5.24-4.76,5-.32,10-.5,14.92-1.06,15.05-1.69,11.46-1.89,16.46,11.29,1.38,3.62.19,5-3.45,5.84-2.3.5-4.35,2.18-7,3.59,7.91,6.24,20.32,1,39-1.94-1.45-3.49-3.12-6.9-4.31-10.47-9.37-28.33-18.74-56.67-27.82-85.09-1.1-3.44-.92-7.47-.56-11.15s-.9-5.08-4.31-4.76c-9.94,1-19.87,1.89-29.79,3-3.41.39-5.24,2.26-4.59,6.2a22.91,22.91,0,0,1,0,8.38q-7.2,33.11-14.74,66.12C82.15,1230.51,79.16,1242.73,76.2,1255.22Z" transform="translate(622.8 -664.42)"/><path class="cls-2" d="M101,1041.54c1.4-1.83,1.73-4.46,1.35-8.28-.35-3.51-2.15-5.14-5.61-4.69-13.35,1.74-26.69,3.59-40,5.3-4.1.53-5.61,2.82-5.7,6.74-.5,21.45-1.13,42.9-1.61,64.35-.13,5.9.35,6.27,6.37,5.58,10.91-1.25,21.78-3,32.72-3.74,7.64-.49,13.24-2.29,14-11,0-.12.23-.22.63-.57,12.07,13.35,26.14,10.57,40,3.92,9.62-4.61,15.45-17.94,13.27-28.52s-10.47-13.19-19.59-14.78a103,103,0,0,1-15-3.48c-1.64-.55-3.79-3.32-3.63-4.85.47-4.33,3.67-7.15,7.88-8,4.41-.84,9.92-1.69,11.93,3.37,2.62,6.63,7.19,5.58,12.2,5,4.55-.5,6.11-3.12,5.13-7.26-1.9-8-6.43-13.87-14.48-16.34-14.41-4.41-30.75,3.13-37.13,16.94-.18.38-.34.77-.5,1.15-5.27,12.83,1,24.82,15,27.81,5,1.08,10.22,1.57,15.13,3,2.53.75,6.64,3.28,6.48,4.54-.4,3-2.22,6.74-4.67,8.45-6.51,4.55-14.34,2.64-19.1-3.76a23.61,23.61,0,0,0-1.85-2.35c-3.57-3.63-7.57-1.22-11.3-.53-3,.54-3.24,3-3.3,5.82,0,1.36-2.17,3.58-3.65,3.86-6.69,1.29-13.48,2-20.24,2.94-11.2,1.52-9.92.37-9.92-9.82,0-4.25,1.83-6.35,6.11-6.76,6.79-.65,13.54-1.61,20.32-2.36,5.81-.64,7-2.62,6.5-10.39-.33-5.31-3.86-5-7.49-4.57-6.6.82-13.17,1.88-19.78,2.54-1.48.15-3.92-.5-4.49-1.56-3-5.59.13-11.09,6.47-11.89,6.76-.86,13.56-1.52,20.29-2.59C97.25,1044.3,99.6,1043.29,101,1041.54Z" transform="translate(622.8 -664.42)"/><path class="cls-2" d="M1126.51,1224.54c2.52,0,4.29-.26,6,0,10.28,1.87,20.56,3.77,30.79,5.9,2.65.54,4.33.26,4.68-2.59.81-6.43,1.48-12.87,2.24-19.31.37-3.15-1-4.35-4.16-4.65-7.77-.73-15.54-1.66-23.24-2.9-12.69-2-14.39-.43-12.76-15.18a4.17,4.17,0,0,0,0-.5c.24-5.26,1.42-6.49,6.78-5.83,6.43.8,12.85,1.82,19.18,3.15,8.56,1.81,17.2,3.5,25.47,6.27,4.11,1.38,5.56.76,6.17-3,.91-5.58,1.67-11.18,2.47-16.77.63-4.33-1.31-6.39-5.62-7-12-1.77-24-3.75-35.93-5.67-11.64-1.87-23.28-3.8-34.93-5.62-2.57-.4-5.55-1.17-5.54,3.22,0,6.41.37,12.87-.24,19.23-2.48,26-5.23,51.92-8,77.85a23.91,23.91,0,0,1-2.58,8c-2.62,5.24-2.4,6.21,3.63,6.71,15.24,1.26,30.5,2.29,45.76,3.23,2,.13,4.05-.8,6.93-1.42l-17.27-9.24c-.28-1.24-.12-3.67-1.06-4.22-4.86-2.88-3.62-7-3.49-11.39.1-3.67-1.18-7.43-2.15-11.07C1129,1229.53,1127.81,1227.53,1126.51,1224.54Z" transform="translate(622.8 -664.42)"/><path class="cls-2" d="M19.49,1230.69a26.19,26.19,0,0,1-1.86-3.06c-7-21.61-14-43.21-20.88-64.87a15.26,15.26,0,0,1-.26-7.85c1.15-4.63-.84-5.82-4.81-5.43-6,.58-11.92,1.19-17.85,2-4.42.6-7.13,3.09-6.26,7.82a61.94,61.94,0,0,0,3.32,12.82c4.06,9.7,8.63,19.18,13,28.76a16.75,16.75,0,0,1,.63,1.89c2.52,8.41,5,16.85,7.6,25.24,1.1,3.53,2.66,6.84-1.07,10-.78.66-.7,2.9-.36,4.25,1.25,5,2.78,9.83,4.23,14.84H.62v6.6a8.51,8.51,0,0,0,2.15.46c11.26-1,22.52-1.86,33.74-3.11.91-.1,2.06-2.54,2.22-4,.4-3.59-.26-7.35.48-10.83,5.13-24.21,10.33-48.4,15.88-72.51,2-8.66,4.85-17.14,7.61-25.61,1.33-4.1-.85-4.93-3.89-4.73-7.13.46-14.24,1.2-21.35,1.92-3.43.35-3.47,2.91-3.47,5.56,0,4.12.43,8.35-.33,12.34C31,1177,28,1190.83,25,1204.64,23.29,1212.88,21.53,1221.11,19.49,1230.69Z" transform="translate(622.8 -664.42)"/><path class="cls-2" d="M1034.78,1227.16l-1.39-.09a11.15,11.15,0,0,1-1-2.21c-2.33-11.23-5-22.4-6.79-33.71-2.35-15-8.57-29.41-6.55-45.06.14-1.09-2.09-3.45-3.4-3.59-6.77-.75-13.6-.92-20.4-1.39-4.23-.29-4.87,1.75-3.72,5.22a73.93,73.93,0,0,1,2.55,8.07c4.37,20.64,9,41.24,12.8,62,2.38,13,7.21,25.67,5.59,39.29-.12,1,2.29,3.27,3.67,3.4,10.26,1,20.56,1.64,30.85,2.2,4.59.25,5.25-1.15,4.48-5.8-.5-3-.8-6.33.11-9.09q13.22-40.41,27-80.65a56.39,56.39,0,0,1,6.2-11.8c2.38-3.73,2-5.56-2.29-6-6.77-.76-13.59-1.24-20.39-1.37-1.34,0-3.56,1.84-4,3.24-3.93,13.85-7.27,27.88-11.38,41.67C1043.17,1203.46,1038.8,1215.26,1034.78,1227.16Z" transform="translate(622.8 -664.42)"/><path class="cls-2" d="M-15.34,1100c0,4.83.07,9.66,0,14.48-.08,3.79,1.44,5.57,5.39,5,6.42-.92,12.9-1.5,19.26-2.68s13.33-2,19.26-4.62c14.22-6.37,18.49-25.22,9.54-37.89-1-1.38-.44-4.16,0-6.14,1.1-4.73,4-9.5,3.63-14-1-12.06-9.49-17.41-23-15.6-8.56,1.16-17.09,2.57-25.67,3.67-4.16.53-6.45,2.67-6.49,6.76-.13,13.39.81,26.8-1.86,40.1C-15.94,1092.55-15.34,1096.33-15.34,1100Z" transform="translate(622.8 -664.42)"/><path class="cls-2" d="M882,1060.44l-1.68.24c-.85-1.55-1.77-3.07-2.53-4.67-5.26-11.08-10.54-22.15-15.69-33.28-3.49-7.54-6.95-9.69-15.08-9.57-4.06.07-5.77,1.9-5.81,5.75-.17,21.62-.42,43.25-.48,64.88,0,5.83,2.08,7.13,9.93,7,5,0,6.25-1.49,6.33-7.34.08-5.66,0-11.32,0-17V1046l1.29-.15c1.34,2.63,2.72,5.24,4,7.89,5.28,10.89,10.64,21.75,15.76,32.72,2.67,5.74,7.24,7.93,13.17,8,4.23,0,6.2-1.83,6.17-6.42-.12-13.63.16-27.27.25-40.91,0-7.82.23-15.65-.14-23.46-.11-2.29-1.35-5.61-3.1-6.55-7-3.74-12.42-.21-12.42,7.54Q881.95,1042.55,882,1060.44Z" transform="translate(622.8 -664.42)"/><path class="cls-2" d="M-122.84,1136.46c3.87-.2,6.52-.37,9.17-.46,5.11-.18,6.69-3.34,7.06-7.87,1-11.58-1-23.11,1.71-34.88,2.14-9.33.49-19.54.37-29.36,0-1.55-.79-4.41-1.33-4.44-3.7-.19-7.6-.37-11.09.65-1.72.5-3.6,3.45-3.84,5.47a148.87,148.87,0,0,0-.62,17.43c0,4-1.31,6.17-5.6,6.6a89.17,89.17,0,0,0-12.73,2.38c-4.31,1.09-5.85-.37-5.58-4.68.37-5.8.73-11.63.54-17.43-.05-1.53-2.21-4.36-3.22-4.29-9.69.71-14.41,1.35-13.3,11.26a17.36,17.36,0,0,1-.08,2.49c-.69,19.6-1.41,39.2-2,58.81-.05,1.69.71,4.86,1.15,4.87,3.9.09,8,.19,11.63-.93,1.66-.51,3.18-3.68,3.49-5.83.65-4.58.47-9.28.64-13.93.47-13.12.47-13.12,13.22-15.64,11.32-2.23,11.15-2.24,10.47,9.61C-123.15,1122.83-122.84,1129.4-122.84,1136.46Z" transform="translate(622.8 -664.42)"/><path class="cls-2" d="M-102.47,1113.5c0,4.66,0,9.32,0,14,.06,5.69.88,6.63,6.44,5.76,13.62-2.13,27.21-4.45,40.78-6.86,5-.89,7.57-6.43,6.11-12.74-1.25-5.37-5.34-3.36-8.51-2.91-7.39,1.06-14.73,2.54-22.13,3.58-1.55.21-4-.21-4.79-1.27-4.31-5.83-.21-14.72,6.87-15.66,6.42-.86,12.82-1.89,19.2-3,5.29-.92,6.9-4.22,6-11-.7-5.54-4.6-4.32-7.91-3.86-6.42.89-12.77,2.17-19.18,3.09-1.29.19-3.29,0-3.95-.82-3.32-4.17-.78-11.15,4.46-12.16,7-1.35,14.09-2.34,21.14-3.47,8.73-1.4,9.53-2.51,9.46-11.28,0-4.45-2-6.1-6.19-5.4-13.6,2.29-27.22,4.44-40.74,7.11-1.91.37-4.62,3.24-4.74,5.09-1.07,16.93-1.65,33.89-2.37,50.83C-102.48,1112.84-102.47,1113.17-102.47,1113.5Z" transform="translate(622.8 -664.42)"/><path class="cls-2" d="M993.24,1065.69h-.16c0,9.65.1,19.29,0,28.93-.12,9.26.48,10,9.88,10.87,5.63.49,6.57-.18,6.61-5.71,0-7-.11-14-.33-20.94-.12-3.93,1.17-6,5.48-5.5s8.94.83,13.41,1.22c3.53.3,5.31,1.88,5.19,5.76-.22,7.31-.19,14.64,0,22,.13,6.12,3,7.84,11.14,7.94,5.95.07,5.09-4.16,5.11-7.62.09-19.78,0-39.56,0-59.35,0-9.4-.6-10-10-10.83-3.89-.37-6.09.73-6.1,5,0,6-.28,12-.18,17.95,0,3.28-1.13,4.6-4.42,4.12q-6.91-1-13.84-1.79c-3.66-.41-5.28-2.57-5.3-6,0-4.65.16-9.3.18-14,0-8.33-.52-8.93-8.74-10.06-6.57-.91-7.89.25-7.91,7.13C993.22,1045.1,993.24,1055.4,993.24,1065.69Z" transform="translate(622.8 -664.42)"/><path class="cls-2" d="M1266.35,1144.29c11.57,0,18.36-4.31,21.29-13.53,3.27-10.29-.15-20.6-9.42-26.49-6.14-3.91-12.74-7.1-19.14-10.59a79.18,79.18,0,0,1-7.84-4.3c-4.38-3.09-4.07-7,.52-9.77,5.42-3.23,14.08-.35,16.73,6.09,2,5,5.55,7.11,10.55,7.76,6.51.85,7.89-.64,6.39-7-3.87-16.27-20-24.79-35.43-23.67-12,.88-18.41,8.67-18,20.75.4,11.48,6.52,19.13,16.75,23.83,6,2.78,12,5.53,18,8.55,3.67,1.87,5.67,5.75,4,9.09-1.14,2.23-5.33,4-8.14,4-6.3,0-11.62-3-14.26-9.14-2.12-4.91-5.94-6.89-10.87-7.45-5.56-.63-7,1-5.86,6.48C1234.76,1134.34,1248.41,1144.29,1266.35,1144.29Z" transform="translate(622.8 -664.42)"/><path class="cls-2" d="M1054.14,1073.18h-.09c0,10.65.09,21.31,0,32,0,3.69,1.16,6.39,4.94,6.89q21.75,2.92,43.55,5.45a5,5,0,0,0,3.9-1.28c3.82-5,0-14-6.09-14.75-6.43-.83-12.88-1.53-19.29-2.51-12-1.83-10.67.6-10.86-13.19-.06-3.84,1.39-5.09,5.07-4.51,6.73,1.06,13.48,2,20.23,2.91,3.31.43,6.66,1.11,7.18-4.13.77-7.63,0-9.83-5.31-10.67q-9.6-1.55-19.24-2.86c-8.08-1.09-7.9-1-7.95-9.17,0-4.47,1.82-5.37,5.84-4.7,7.54,1.25,15.13,2.23,22.71,3.24,6,.79,8.84-2.29,7.63-8.21-.9-4.36-3.61-7.2-8-7.77-12.69-1.66-25.42-3.06-38.13-4.66-4.33-.55-6.09,1.2-6.05,5.5C1054.21,1051.54,1054.14,1062.36,1054.14,1073.18Z" transform="translate(622.8 -664.42)"/><path class="cls-2" d="M1141,1075.34h.06c0,7.15,0,14.31,0,21.46.1,19.72,14.21,33.4,34,33,13.24-.27,21.5-7.37,22-20.63.67-15.94.16-31.93.32-47.9,0-4.74-2.19-7-6.63-7.62-1.32-.18-2.63-.42-3.94-.65-5.15-.89-6.34,0-6.33,5.23,0,11.14.29,22.28.26,33.43a90.89,90.89,0,0,1-.89,14.39c-.86,5.21-5.11,7.73-10.35,7-7.28-1.09-11.38-6.17-11.51-14.51-.22-14-.36-27.94-.51-41.91-.08-7.53-.64-8.22-7.86-9.37-1-.15-2-.4-2.94-.55-3.65-.56-5.8.64-5.77,4.71C1141,1059.37,1141,1067.35,1141,1075.34Z" transform="translate(622.8 -664.42)"/><path class="cls-2" d="M517,1080.18v-.76c7,0,14,0,21,0,3.75,0,5.56-1.68,5.45-5.45-.05-1.49-.08-3,0-4.49.26-4.49-1.83-6.37-6.29-6.17q-9.72.43-19.44.49c-10.08,0-10.51-.67-10.7-10.75-.08-4.76,1.85-6,6.23-5.94,6.65.16,13.32,0,20-.31,5.58-.26,6.23-1.74,6.12-9.46-.07-4.68-2.85-5.52-6.54-5.48-6.32.08-12.64.18-19,.38-3.36.1-6.44.31-6.5-4.52-.11-8.16.46-9.12,6.62-9.18,7.33-.07,14.65-.06,22-.19,6.16-.11,6.94-1.17,6.85-8.62-.07-6.28-1-7.25-7.25-7.17-12.64.16-25.28.52-37.93.6-4.14,0-5.47,1.83-5.53,5.78-.17,11.91-.71,23.81-.91,35.72-.16,9.82.09,19.65-.09,29.47-.07,4.37,2,6,6,6Z" transform="translate(622.8 -664.42)"/><path class="cls-2" d="M1346.87,1081.22c-3.85-1-5.86,1.35-7.19,5.47-6.09,18.76-12.38,37.45-18.6,56.16-3.46,10.39-3.14,10.68,7.77,12.46,4,.65,6.33-.75,7.9-4.18,4.39-9.61,4.4-9.6,14.93-7.7,1.63.3,3.26.56,4.91.77,4.54.58,7.65,3.23,8,7.59.73,8.19,4.82,12,12.91,13,7.13.87,8,.4,5.88-6.37q-10.23-32.78-20.53-65.54C1360.29,1084.61,1356.28,1081.63,1346.87,1081.22Z" transform="translate(622.8 -664.42)"/><path class="cls-2" d="M630.47,1028.89c8,0,9.27-1.8,6.89-9a28.37,28.37,0,0,0-26-19.92c-13.17-.73-23,5.25-28.72,16.85-7.18,14.57-7.59,29.84-1.55,44.93,4.6,11.48,16.86,18.9,28.45,18.07,11.92-.85,24.07-10.55,27.28-21.77,1.54-5.42-.9-8.52-6.51-8.07-4.78.38-8.4,2.44-10.67,7a11.75,11.75,0,0,1-11.29,6.85,12.17,12.17,0,0,1-11.41-7.62,37.63,37.63,0,0,1,1.59-34.09c2.48-4.6,7-6.44,12.25-6.19,5,.24,8.37,2.78,10,7.57S626.43,1029.06,630.47,1028.89Z" transform="translate(622.8 -664.42)"/><path class="cls-2" d="M752.16,1036.1c-1.41-2.83-2.31-4.38-3-6-2.29-5.69-4.68-11.36-6.68-17.15-1.82-5.25-5-8-10.74-7.55-1.82.16-3.66,0-5.49,0-3.76,0-4.76,1.74-3.19,5.09s3.21,6.92,4.83,10.38c2.17,4.66,4.23,9.37,6.57,14,6.63,13,10.66,26.37,8.68,41.22-.9,6.69.28,7.57,6.81,7.87,8.75.41,9.67-.19,9.29-8.89-.56-12.58,1.58-24.29,8.23-35.24,4.12-6.78,7.28-14.14,10.86-21.26,4.48-8.92,4.47-8.93-5.38-10.5-6.91-1.1-8.65-.11-11.43,6.39C758.63,1021.17,755.67,1028,752.16,1036.1Z" transform="translate(622.8 -664.42)"/><path class="cls-2" d="M351.81,1007.18a.09.09,0,0,0,0,.05c-1.17,0-2.33.09-3.49.17-6.8.41-13.63.58-20.39,1.35-5,.57-6.36,3.77-5.6,10.75.49,4.5,3.51,4.55,6.91,4.28,2.81-.23,5.64-.24,8.45-.47,3-.25,4.44,1.39,4.43,4.09,0,8.13-.26,16.27-.4,24.41-.16,9.42-.39,18.84-.36,28.26a4.3,4.3,0,0,0,2.17,3.27c8.49,3.14,13.51-.28,13.74-9.3q.56-21.68.88-43.36c.12-8.33,0-8.33,8.58-8.8,1.83-.1,3.65-.34,5.47-.31,4,.08,5.76-1.94,5.64-5.83a37.36,37.36,0,0,1,0-4.49c.37-4.23-1.7-5.67-5.67-5.37C365.41,1006.38,358.61,1006.75,351.81,1007.18Z" transform="translate(622.8 -664.42)"/><path class="cls-2" d="M985.64,1040.62c.49-2.7.87-4.48,1.12-6.28.86-6.1-.75-8.21-6.93-8.87-13.4-1.44-26.8-2.88-40.21-4.18-7.85-.76-8.55.11-8.56,7.92,0,4.66,1.67,7.25,6.64,7.29,2.31,0,4.64.91,6.92.79,5.14-.27,6.65,2.13,6.54,7-.34,15.46-.44,30.94-.56,46.41-.06,8.79.13,8.94,9,10.2,6.31.9,7.46,0,7.49-6.34q.09-24.23.17-48.45c0-6.74.23-6.83,6.71-6.06C977.72,1040.44,981.52,1040.42,985.64,1040.62Z" transform="translate(622.8 -664.42)"/><path class="cls-2" d="M-202.54,1133.88h-1.88c0,4.15-.14,8.31,0,12.46.19,4.53,2.89,6.48,7.34,5.61,5.5-1.07,8.89-5.26,9.11-11.4.53-15.12,1.09-30.25,1.51-45.38.14-4.94,1.76-8.37,7.22-8.91,1.48-.15,2.93-.61,4.4-.86,8.26-1.4,9.14-2.46,8.82-10.7-.19-5-1.23-5.89-6.11-5s-9.81,1.8-14.71,2.72c-10.29,1.95-20.6,3.76-30.84,5.94-4.76,1-6.61,6.05-4.84,12.21,1.36,4.75,4.93,2.64,7.82,2.26,2-.26,3.9-.87,5.85-1.27,5.21-1.08,6.29-.17,6.28,5C-202.56,1109-202.54,1121.45-202.54,1133.88Z" transform="translate(622.8 -664.42)"/><path class="cls-2" d="M685.21,1063.61h-1c0,3.66,0,7.32,0,11,.07,5.7,1.38,6.44,9.54,6.68,4.73.15,6.59-1.89,6.65-6.47.18-14.28.57-28.56.79-42.84.19-12.56.14-12.56,12.54-11.73,3.36.22,6.77.95,7-4.34.45-9.24-.12-10.66-6.44-11q-19.65-.92-39.32-1.5c-9-.27-9.67.53-9.63,9.34,0,3.59,1.38,5.65,5.26,5.66,2.82,0,5.65.56,8.45.39,5-.32,6.26,2.06,6.19,6.61C685.08,1038.15,685.21,1050.88,685.21,1063.61Z" transform="translate(622.8 -664.42)"/><path class="cls-2" d="M174.59,1080H175c0,4.15-.15,8.3.09,12.44.07,1.22,1,3,2,3.46,8,3.25,13.61-.64,13.89-9.35.48-15.11,1.08-30.21,1.35-45.32.09-5,2.19-7.3,7-7.64a44.57,44.57,0,0,0,9.34-1.21c5.72-1.69,3.76-6.62,3.69-10.51-.05-3.35-2.4-4.57-5.48-4.28-14.88,1.41-29.75,2.91-44.64,4.3-3.84.36-5.51,2.29-5.66,6.13-.37,9.26.55,10.22,9.67,9.09.83-.1,1.64-.29,2.46-.42,7.33-1.11,8-.49,7.7,7.09C175.83,1055.84,175.19,1067.91,174.59,1080Z" transform="translate(622.8 -664.42)"/><path class="cls-2" d="M409.13,1003.89v.45c-6.8.35-13.59.73-20.39,1-5.84.27-8,2.68-7.91,8.91.06,4.38,2,6,7.76,6.14,1.32.05,2.65,0,4,0,8.36-.15,8.74.59,8.48,9-.48,15.36-.58,30.74-.63,46.12,0,1.66.9,4.28,2.14,4.86,7.49,3.48,13.45-.42,13.59-8.59.24-14.11.6-28.23.63-42.35,0-11.31.91-10.44,9.58-10.19,1.32,0,2.64-.21,4-.3,5.51-.41,6.88-2.09,6.43-8.73-.3-4.28-2.6-6.48-7.21-6.33C422.75,1004.05,415.94,1003.89,409.13,1003.89Z" transform="translate(622.8 -664.42)"/><path class="cls-2" d="M260.55,1043.9h1.34q0-11.73,0-23.45c0-6.66-1.07-7.63-7.57-6.7a20.12,20.12,0,0,1-3,.43c-3.84,0-5.31,2.16-5.47,5.65-.56,12.48-1.26,25-1.62,37.45-.26,9-.07,18,0,27,0,5.85,1.24,6.87,7.2,6.42,10.61-.8,21.22-1.67,31.84-2.31,9.62-.57,10.19-1,10.26-10.35.05-5.52-1.31-6.74-6.82-6.29-7,.57-13.94,1-20.89,1.67-4,.39-5.4-1.18-5.32-5.08C260.66,1060.19,260.55,1052,260.55,1043.9Z" transform="translate(622.8 -664.42)"/><path class="cls-2" d="M439.31,1042.76h-2c0,11,0,21.92,0,32.88,0,3.22,1,5,4.56,4.91,13.15-.15,26.3-.16,39.45-.19,3.47,0,5.28-1.56,5.17-5.14a39.56,39.56,0,0,1,0-5c.45-4.62-1.69-6.3-6.15-6.07-7.14.37-14.3.67-21.44.54-1.58,0-4.43-1.9-4.48-3-.39-8.46-.37-17-.19-25.43.19-9.24.75-18.48,1-27.72.09-3.06-1.65-4.51-4.77-4.3-1.5.11-3,0-4.5,0-6,.08-6.71,1-6.66,7.13C439.37,1021.82,439.31,1032.29,439.31,1042.76Z" transform="translate(622.8 -664.42)"/><path class="cls-2" d="M660.05,1040.12h.86c0-10.14,0-20.29,0-30.43,0-5.87-1-7-6.85-7.12-1.33,0-2.66,0-4,0-3.13,0-5.07,1.1-5.05,4.63s-.26,7.31-.29,11c-.07,7,0,14-.08,21-.23,11.84-.62,23.68-.81,35.53,0,1.16.78,3.25,1.45,3.35,3.9.63,8.13,1.71,11.71.71,1.65-.46,2.82-5.27,2.92-8.16C660.27,1060.43,660.05,1050.27,660.05,1040.12Z" transform="translate(622.8 -664.42)"/><path class="cls-2" d="M316.53,1047.37h1.67c0-10.3-.05-20.61,0-30.92,0-3.8-.17-7.07-5.33-7-9,0-11.15,1.4-11.37,7.49-.42,11.71-1,23.42-1.27,35.13-.19,9.66,0,19.32.2,29,0,1.66.67,4,1.85,4.81,5.62,3.76,14.1-.78,14.19-7.51C316.63,1068,316.53,1057.68,316.53,1047.37Z" transform="translate(622.8 -664.42)"/><path class="cls-2" d="M831,1050.41h.67c0-10.8.07-21.6,0-32.41,0-5.68-1.62-6.34-10.19-6.71-5.07-.23-6.31,2-6.33,6.47-.07,20.28-.34,40.56-.44,60.84,0,9.14.23,9.34,9.4,10,5.6.4,6.88-.7,6.9-6.24C831,1071.7,831,1061.06,831,1050.41Z" transform="translate(622.8 -664.42)"/><path class="cls-2" d="M1393.89,1158.75l-1.29.68c1.59,3.18,2.39,7.72,5,9.2,3,1.75,8.52,2.31,11.15.61,2-1.27,1.6-7,1.28-10.66-.5-5.65-4.71-7.86-11.92-7.5C1392.14,1151.37,1394.22,1155.62,1393.89,1158.75Z" transform="translate(622.8 -664.42)"/><path class="cls-2" d="M1294.78,1141.27c0,7.93,2,10,10,10,5.34,0,7-2,7-8.26-.07-5.92-5.7-11.75-11.32-11.71C1296.47,1131.35,1294.83,1134.26,1294.78,1141.27Z" transform="translate(622.8 -664.42)"/><path class="cls-2" d="M1226.5,1127.64l.79-.48c-1.29-2.76-1.89-6.53-4.06-8-2.46-1.68-6.31-1.54-9.57-1.7-1.08-.06-3.18,1.42-3.19,2.2a59.32,59.32,0,0,0,.89,12.65c.55,2.61,11.92,4.78,13.9,3a3.78,3.78,0,0,0,.83-2.22C1226.32,1131.25,1226.38,1129.44,1226.5,1127.64Z" transform="translate(622.8 -664.42)"/><path class="cls-2" d="M1176.65,869.83c10.17,32.09,20.36,64.23,30.65,96.68l26.65,4c7.52-49.45,15-98.33,22.42-147.44l-27-4c-4.22,30.41-8.38,60.39-12.66,91.25-1.59-5.47-2.82-10.09-4.26-14.64q-12.8-40.35-25.72-80.64c-.29-.92-1.23-2.2-2-2.31-9.11-1.34-18.25-2.48-26.6-3.57-6.46,49.62-12.85,98.63-19.26,147.85l26.24,3.44C1169,929.88,1172.8,899.89,1176.65,869.83Z" transform="translate(622.8 -664.42)"/><path class="cls-2" d="M63.5,946.41c15.22-1.64,31.13-3,46.92-5.15,16.11-2.23,29.42-9.9,35.74-25.35,14-34.16,11.45-68-5.67-100.4-8-15.09-22-22.55-38.67-22.2-18.66.4-37.29,2.83-55,4.3C52.38,847.45,57.93,896.81,63.5,946.41Z" transform="translate(622.8 -664.42)"/><path class="cls-2" d="M623.14,848.81c7.61-2.91,13.25-9.08,15.82-17.56,3.27-10.76,4.55-21.85,2.13-33-3.34-15.45-14.35-27.7-31.65-28q-17-.32-33.94-.47c-7.4-.07-14.8,0-21.74,0v148.9h27.31v-56H591.2c8.93,0,13,2.71,16.46,11a57,57,0,0,1,2.55,7.53c3.25,12.66,6.4,25.35,9.68,38.43h30.05c-6.2-20-12-39.47-18.47-58.77C630,856.57,626.2,853.11,623.14,848.81Z" transform="translate(622.8 -664.42)"/><path class="cls-2" d="M825,777.41c-2.85,49.74-5.68,99.24-8.54,149.06l26.68,1.67c1-18.88,2-37.41,3-56.13,4.21.21,7.84.54,11.48.54,7.06,0,11.53,3.72,14.12,9.9a44.58,44.58,0,0,1,2.54,8.56c2.63,13.15,5.13,26.32,7.74,39.83l29.26,2.1a12.25,12.25,0,0,0,0-2.13q-5.91-25.2-11.87-50.39c-1.78-7.52-4.07-14.78-11.53-19.43,9.68-3.16,15.8-9.4,18.8-18.39,3.45-10.32,5.15-20.92,3.52-31.88-2.48-16.75-13.5-27.93-30.21-29.43C861.53,779.64,843.1,778.66,825,777.41Z" transform="translate(622.8 -664.42)"/><path class="cls-2" d="M-74.38,871.24c.12,2.27.21,4.93.43,7.57,2,23.29,8,45.18,23.43,63.4C-28.62,968,9,963.59,24.73,933.62c7-13.43,9.51-28,9.64-42.87.21-23.75-4.74-46.23-18.76-66C5,809.88-9.34,802-28,803.8c-19.41,1.91-32.22,12.77-39.65,30.5C-72.53,846-73.9,858.33-74.38,871.24Z" transform="translate(622.8 -664.42)"/><path class="cls-2" d="M1374.19,896.29a85.81,85.81,0,0,0-5.38-33.28c-11-28.63-43.2-40.53-68.11-25-12.61,7.85-20.55,19.69-26,33.18-11.44,28.41-14.57,57.43-2.74,86.36,13.47,32.94,53.71,39.07,76.79,12C1366.69,948.51,1373.54,923.4,1374.19,896.29Z" transform="translate(622.8 -664.42)"/><path class="cls-2" d="M532.7,845.12c-.13-15.52-2.09-30.9-9-45-3.5-7.21-7.86-14.53-13.53-20.05-22.74-22.18-58.62-15.15-73.86,13.87-6.85,13.05-10,27.1-10.67,41.65-1,22.65,2.64,44.34,14.38,64.21,18.65,31.56,61.53,30.85,79.26-.52C528.84,882.42,532.22,864.19,532.7,845.12Z" transform="translate(622.8 -664.42)"/><path class="cls-2" d="M251.18,779.63l-81.93,6.45c4.26,49.73,8.51,99.35,12.73,148.56l80.83-5.86c-.7-10.42-1.42-21.28-2.11-31.73l-55.08,4.58c-.83-10.31-1.59-19.87-2.4-30l48.32-2.78c-.75-10.65-1.52-21.5-2.25-31.82l-48.52,4.19c-.69-9.11-1.31-17.34-2-26.28l54.6-3.35C252.65,800.91,251.9,790,251.18,779.63Z" transform="translate(622.8 -664.42)"/><path class="cls-2" d="M967.18,819.22l54.34,5.82c1.06-10.58,2.14-21.4,3.18-31.77L943,785.88c-4.1,49.6-8.22,99.35-12.3,148.64l80.63,7.71c1-10.06,2.08-21,3.14-31.63l-54.95-4.72c.93-10.34,1.77-19.86,2.68-30l48,5.25c1.05-10.62,2.1-21.31,3.14-31.77l-48.49-3.85C965.61,836.65,966.36,828.28,967.18,819.22Z" transform="translate(622.8 -664.42)"/><path class="cls-2" d="M1033.35,898.85c-1.23,34.59,12.88,48.68,37.3,52.92,22.63,3.94,42.34-4,49.66-29.59a72.41,72.41,0,0,0,2.34-9.67c3.22-22.32-1.82-42.87-28-53-5.11-2-10.19-4-15.17-6.3-4.23-1.91-7.55-4.8-8.55-9.67a14,14,0,0,1,10.51-16.75c8.23-1.89,16.73,3.21,18.45,11.18.48,2.22.64,4.51.9,6.44h28.58c-.13-2.76-.22-5-.36-7.31-1.57-25.76-23.87-43.81-49.5-40.05-19.11,2.8-33.41,17.25-36.29,37.17-2.85,19.67,2,39.87,23.32,49,7.47,3.19,14.84,6.64,22,10.43,6,3.16,7.21,8.93,6.22,15.07-1,6.48-4.18,11.45-11.2,13.08-11.62,2.69-21.95-5.34-22.52-17.67-.09-1.77,0-3.55,0-5.24Z" transform="translate(622.8 -664.42)"/><path class="cls-2" d="M-95,861.5C-99.1,848.29-105.15,836.91-116,829c-25.86-18.79-62.54-5.89-73.24,25.55-6.2,18.22-5.12,36.71-1.7,55.19,3.15,17,8.57,33.1,19.62,46.81,14.84,18.41,38.72,24,59.64,13.86,17.5-8.45,30-35.24,25.32-54.66l-27.25-1.38c-.31,4.14-.32,7.81-.9,11.38-2.15,13.46-13.56,21.32-25.51,17.52-7.26-2.31-11.88-7.82-15.22-14.31-8.09-15.77-10.92-32.68-9.85-50.23a46.12,46.12,0,0,1,3-13.54c6-15.56,23.74-18.4,34.21-5.44,3,3.65,4.75,8.24,7.21,12.64Z" transform="translate(622.8 -664.42)"/><path class="cls-2" d="M724.94,772.83c-1.77,49.73-3.52,99.18-5.3,149.37H746.1l2-56.84L794,868.21c.51-10.68,1-21.52,1.54-31.7l-45.29-1.65V805.47l53.36,3.2c.55-10.66,1.13-21.81,1.68-32.49Z" transform="translate(622.8 -664.42)"/><path class="cls-2" d="M403.62,865.45V832.84l-46.7,2.35v-29.7h51.47V771.93l-80.87,3.53c2.53,49.8,5.05,99.3,7.58,149.08l26.47-1.35c-1-19.25-2-38.09-3.05-57.74Z" transform="translate(622.8 -664.42)"/><path class="cls-4" d="M86.21,912c-3-28.66-6-56.83-9.07-85.38,7.17-.73,13.9-1.69,20.66-2,9.48-.48,17.18,3.45,21.35,11.95,9.13,18.63,11,38.17,4.63,58.05-3.22,10.07-10.91,15-21.39,15.87C97.27,910.87,92.16,911.44,86.21,912Z" transform="translate(622.8 -664.42)"/><path class="cls-4" d="M581.27,832V800.59c7.77,0,15.36-.06,22.94,0A9.09,9.09,0,0,1,608,801.8c5.11,2.62,7.52,10.61,5.72,18.68-1.69,7.57-5.47,11.29-12.23,11.49C594.87,832.17,588.26,832,581.27,832Z" transform="translate(622.8 -664.42)"/><path class="cls-4" d="M848.12,841.05c.71-10.67,1.38-20.89,2.08-31.55,7.52.57,14.76,1,22,1.73a12.51,12.51,0,0,1,5.51,2c4.77,3.2,6.15,11.75,3.44,19.83-2.17,6.5-6.45,9.67-13,9.33S855.25,841.55,848.12,841.05Z" transform="translate(622.8 -664.42)"/><path class="cls-4" d="M7.85,890.72c-1.72,7.87-2.47,16.13-5.38,23.54-6.31,16.09-24.86,18.23-35.49,4.53-7.13-9.18-10-20.08-11.94-31.29-2-12.06-2.53-24.11,1.28-36,3-9.29,8.64-15.74,18.81-16.81,9.61-1,16,4.22,20.91,11.77,6.47,10,10.59,27.28,10.61,44Z" transform="translate(622.8 -664.42)"/><path class="cls-4" d="M1347.58,896.7c-1.8,15.18-4.44,29.62-11.58,42.9a40.78,40.78,0,0,1-6.7,9.2c-10.41,10.57-26.49,8-32.48-5.65a53.4,53.4,0,0,1-4.16-18.26c-.86-15.26,1.57-30.17,8.29-44a46.58,46.58,0,0,1,8.41-12.17c10.24-10.47,26.81-7.83,32.64,5.6C1345,881.25,1345.79,889.2,1347.58,896.7Z" transform="translate(622.8 -664.42)"/><path class="cls-4" d="M504.84,845.84c-.21,11.83-1.16,23.24-6.61,33.71-4.39,8.41-11.08,13-21,12.08-6.69-.66-11.37-4.36-14.91-9.71-5.57-8.42-7.55-18-8.51-27.83-1.37-13.86-1-27.59,4.56-40.68,3.12-7.38,8-13.07,16.34-14.69,9.18-1.79,17.46,2.36,22.45,11.25C503.5,821.21,504.65,833.58,504.84,845.84Z" transform="translate(622.8 -664.42)"/><path class="cls-3" d="M525.84,831.89l1.74,7.75-2.48.54-1.62-7.78Z" transform="translate(622.8 -664.42)"/><path class="cls-3" d="M959.44,806.23l-1.56-8.05C962.4,800.23,962.91,802.36,959.44,806.23Z" transform="translate(622.8 -664.42)"/><path class="cls-3" d="M-129.74,843.08c-.57-2.55-1.15-5.09-1.72-7.64l2.39-.6q1,3.76,2,7.53Z" transform="translate(622.8 -664.42)"/><path class="cls-3" d="M203.9,1228.36c1.81,2.94,4,6,.9,9.23-.64.66-3.18-.49-4.84-.81.64-2.9,1.29-5.8,1.93-8.7Z" transform="translate(622.8 -664.42)"/><path class="cls-3" d="M255.09,1134.26c6.6,1.18,7.68,4,5.46,9.71C258.63,1140.56,257.18,1138,255.09,1134.26Z" transform="translate(622.8 -664.42)"/><path class="cls-3" d="M733.9,792.29q-.79-3.87-1.58-7.73l2.33-.53c.61,2.53,1.23,5.06,1.84,7.6Z" transform="translate(622.8 -664.42)"/><path class="cls-3" d="M338.82,789.78c3.33,5,2.84,7.54-2.1,10.69C333.32,795.27,333.75,793.08,338.82,789.78Z" transform="translate(622.8 -664.42)"/><path class="cls-3" d="M544.47,1136.47c4.3-.71,4.95-8.54,10.57-3.9,1.05.87,1,5.14-.18,6.28C551.26,1142.46,548.13,1139.65,544.47,1136.47Z" transform="translate(622.8 -664.42)"/><path class="cls-3" d="M550.85,1219.8c5,5.74,5,6-.23,11.8l-5.56-5.2Z" transform="translate(622.8 -664.42)"/><path class="cls-3" d="M652.84,1137.57l6.53-5.62c5.09,5.63,5.07,5.91-.65,10.92Z" transform="translate(622.8 -664.42)"/><path class="cls-3" d="M595,1217.89c2.14,3.81,7.21,5.54,5.14,11C592.33,1226,591.09,1223.68,595,1217.89Z" transform="translate(622.8 -664.42)"/><path class="cls-3" d="M765.7,1148.69c-5.15-4.28-5.13-4.84.22-10.32l5,5.59Z" transform="translate(622.8 -664.42)"/><path class="cls-3" d="M701,1223.86l6.59,8.13c-.16.47-.32.93-.47,1.39-1.61-.22-3.6.07-4.76-.77C699.5,1230.54,699.2,1227.91,701,1223.86Z" transform="translate(622.8 -664.42)"/><path class="cls-3" d="M939.51,1171c1.86,9.53,3.78,19,5.56,28.59.52,2.79-1,3.93-3.74,3.76-2.16-.13-4.32,0-6.48-.17-6.88-.45-8.18-3.13-5.63-9.4s4.29-12.83,6.44-19.25c.42-1.26,1.07-2.45,1.61-3.67Z" transform="translate(622.8 -664.42)"/><path class="cls-3" d="M907.92,1240.07l-7.08,5.1-3.9-4.25C901,1234.87,902.25,1234.72,907.92,1240.07Z" transform="translate(622.8 -664.42)"/><path class="cls-3" d="M128.51,1200.63l-15,1.52c0-11.34,3.77-21.45,6.3-32C124.37,1179.69,128.72,1189.08,128.51,1200.63Z" transform="translate(622.8 -664.42)"/><path class="cls-3" d="M87.39,1243.13l6.17-4.11c4.18,3.46,4.1,3.87-1.92,9.35C90.33,1246.75,89,1245.14,87.39,1243.13Z" transform="translate(622.8 -664.42)"/><path class="cls-3" d="M99,1217.52l6.65-1.3,1,.88c-1.48,1.38-2.76,3.19-4.51,4-.79.35-2.5-1.36-3.79-2.13Z" transform="translate(622.8 -664.42)"/><path class="cls-3" d="M1177.42,1167.77l5.89,6.36c-2.52,1.52-4.62,3.14-7,4-.68.24-3.26-2.13-3.08-2.61C1174.13,1173.09,1175.65,1170.89,1177.42,1167.77Z" transform="translate(622.8 -664.42)"/><path class="cls-3" d="M48.46,1154.53c4.22,3,3.13,5.33-1,7.94l-3.49-3.89Z" transform="translate(622.8 -664.42)"/><path class="cls-3" d="M1071.86,1164.35l-6.09-9.14c2.78.25,5.33-.13,5.71.61,1.26,2.42,1.73,5.26,2.49,7.93Z" transform="translate(622.8 -664.42)"/><path class="cls-3" d="M1008.15,1150.25q-1.68,4.27-3.37,8.55l-2.06-.23c-.09-2.34-.74-4.86-.08-7,.4-1.24,2.85-1.84,4.37-2.74Z" transform="translate(622.8 -664.42)"/><path class="cls-3" d="M1,1094.77c.35-8.48,1.35-9.61,9.2-10.71,2.78-.39,5.59-.59,8.39-.86,3.59-.34,6.65.28,7.72,4.4s-1.09,9.93-4.66,10.9a116.82,116.82,0,0,1-17.47,3.35c-1,.11-2.45-3-3.36-4.85C.39,1096.26.91,1095.07,1,1094.77Z" transform="translate(622.8 -664.42)"/><path class="cls-3" d="M25,1059.61c-.22,4-1.44,7.13-6,7.86a75.36,75.36,0,0,0-11.2,2.28c-4.09,1.32-5.65-.67-6.12-4-.51-3.6-1-8,3.5-9.21a69.47,69.47,0,0,1,14.76-2.07C23.68,1054.24,25,1056,25,1059.61Z" transform="translate(622.8 -664.42)"/><path class="cls-3" d="M1351.55,1107.08c1.86,6.27,3.82,12.51,5.39,18.84.17.7-2,2.87-3,2.82-9.23-.46-10.26-2-7.66-11,1-3.6,2.37-7.13,3.56-10.68Z" transform="translate(622.8 -664.42)"/><path class="cls-3" d="M552.12,1421.85c7.84,3.44,9.29,7.31,5.1,11.74-.94,1-3.08,2-4,1.6a5.38,5.38,0,0,1-2.7-3.94C550.6,1428.25,551.5,1425.26,552.12,1421.85Z" transform="translate(622.8 -664.42)"/></svg>